<?xml version="1.0" encoding="UTF-8"?>
<svg width="144px" height="144px" viewBox="0 0 144 144" version="1.1" xmlns="http://www.w3.org/2000/svg" xmlns:xlink="http://www.w3.org/1999/xlink">
    <!-- Generator: Sketch 58 (84663) - https://sketch.com -->
    <title>icon1</title>
    <desc>Created with Sketch.</desc>
    <defs>
        <linearGradient x1="100%" y1="0%" x2="0%" y2="100%" id="linearGradient-1">
            <stop stop-color="#FA5E1D" offset="0%"></stop>
            <stop stop-color="#F67F2A" offset="100%"></stop>
        </linearGradient>
        <rect id="path-2" x="0" y="0" width="100" height="100" rx="12"></rect>
        <filter x="-32.5%" y="-32.5%" width="165.0%" height="165.0%" filterUnits="objectBoundingBox" id="filter-3">
            <feMorphology radius="5" operator="dilate" in="SourceAlpha" result="shadowSpreadOuter1"></feMorphology>
            <feOffset dx="0" dy="0" in="shadowSpreadOuter1" result="shadowOffsetOuter1"></feOffset>
            <feGaussianBlur stdDeviation="7.5" in="shadowOffsetOuter1" result="shadowBlurOuter1"></feGaussianBlur>
            <feComposite in="shadowBlurOuter1" in2="SourceAlpha" operator="out" result="shadowBlurOuter1"></feComposite>
            <feColorMatrix values="0 0 0 0 0.580392157   0 0 0 0 0.607843137   0 0 0 0 0.674509804  0 0 0 0.343941215 0" type="matrix" in="shadowBlurOuter1"></feColorMatrix>
        </filter>
        <linearGradient x1="34.0877757%" y1="0%" x2="71.3005515%" y2="100%" id="linearGradient-4">
            <stop stop-color="#6648CD" offset="0%"></stop>
            <stop stop-color="#843DDD" offset="100%"></stop>
        </linearGradient>
    </defs>
    <g id="Page-1" stroke="none" stroke-width="1" fill="none" fill-rule="evenodd">
        <g id="icon1" transform="translate(22.000000, 22.000000)">
            <g id="Rectangle">
                <use fill="black" fill-opacity="1" filter="url(#filter-3)" xlink:href="#path-2"></use>
                <use stroke="#FFFFFF" stroke-width="5" fill="url(#linearGradient-1)" fill-rule="evenodd" xlink:href="#path-2"></use>
            </g>
            <g id="mobile-phone" transform="translate(34.000000, 20.000000)" fill="#FFFFFF" fill-rule="nonzero">
                <path d="M27,0 L5,0 C2.24,0.00325 0.00325,2.24 0,5 L0,55 C0.00325,57.76 2.24,59.99675 5,60 L27,60 C29.76,59.99675 31.99675,57.76 32,55 L32,5 C31.99675,2.24 29.76,0.00325 27,0 Z M30,55 C30,56.656875 28.656875,58 27,58 L5,58 C3.343125,58 2,56.656875 2,55 L2,52 L30,52 L30,55 Z M6,50 L6,48 L10,48 L10,50 L6,50 Z M30,50 L12,50 L12,47 C12,46.44775 11.55225,46 11,46 L5,46 C4.44775,46 4,46.44775 4,47 L4,50 L2,50 L2,10 L30,10 L30,50 Z M30,8 L2,8 L2,5 C2,3.343125 3.343125,2 5,2 L27,2 C28.656875,2 30,3.343125 30,5 L30,8 Z" id="Shape"></path>
                <rect id="Rectangle" x="10" y="4" width="12" height="2"></rect>
                <rect id="Rectangle" x="15" y="54" width="2" height="2"></rect>
                <path d="M22.8290148,13.9994833 L28,13.9994833 L28,12.0000145 L22.8290148,12.0000145 C22.0326421,11.9975299 21.2683943,12.3139435 20.7070209,12.8787893 L14.5450386,19.0391072 L8.50205594,19.6389434 C5.94118828,19.8877505 3.99056888,22.0444116 4.0000343,24.6165843 L4.0000343,28.9953887 C4.0000343,29.5474879 4.44781757,29.9951157 5.00006598,29.9951157 L8.10005709,29.9951157 C8.64955551,32.700627 11.2887979,34.4483998 13.9950402,33.8990498 C15.9626595,33.4996588 17.5005301,31.9622036 17.900029,29.9951157 L28,29.9951157 L28,27.9956617 L17.900029,27.9956617 C17.900029,27.9776666 17.888029,27.9616709 17.884029,27.9436759 C17.8222792,27.6590036 17.7356544,27.3803297 17.6250298,27.1109032 C17.5860299,27.0159292 17.53403,26.9289529 17.4890302,26.836978 C17.4032804,26.6532782 17.3064057,26.4750768 17.199031,26.3031238 C17.1350312,26.2031511 17.0630314,26.1141754 16.9920316,26.0202011 C16.8822819,25.870242 16.7641572,25.7267812 16.6380326,25.5903184 C16.5540328,25.5013427 16.4670331,25.4183654 16.3770333,25.335388 C16.2430337,25.2116718 16.1021591,25.0954535 15.9550346,24.987483 C15.8550348,24.914503 15.7550351,24.8445221 15.6550354,24.7785401 C15.4955359,24.680067 15.3305363,24.5905914 15.1610368,24.5106132 C15.0550371,24.4586274 14.9510374,24.4046422 14.8410378,24.3606542 C14.6466633,24.2870493 14.4479139,24.2253161 14.2460395,24.1757047 C14.1460397,24.1497118 14.05204,24.1157211 13.9460403,24.0957265 C13.3191671,23.9677615 12.672919,23.9677615 12.0460458,24.0957265 C11.9460461,24.1157211 11.8460463,24.1497118 11.7460466,24.1757047 C11.5441722,24.2251912 11.3454228,24.2870493 11.1510483,24.3606542 C11.0410487,24.4046422 10.937049,24.4606269 10.8310493,24.5106132 C10.6615497,24.5905914 10.4965502,24.680067 10.3370507,24.7785401 C10.237051,24.8445221 10.1370512,24.914503 10.0370515,24.987483 C9.88992696,25.0954535 9.74905236,25.2116718 9.61505274,25.335388 C9.525053,25.4183654 9.43805325,25.5013427 9.35405349,25.5903184 C9.22792885,25.7267812 9.10980419,25.870242 9.00005451,26.0202011 C8.92905471,26.1141754 8.85705492,26.2041508 8.7930551,26.3031238 C8.68568041,26.4750768 8.58880569,26.6532782 8.50305593,26.836978 C8.45805606,26.9289529 8.40305622,27.0159292 8.36705632,27.1109032 C8.25643164,27.3803297 8.16980689,27.6590036 8.10805707,27.9436759 C8.10805707,27.9616709 8.0960571,27.9776666 8.09205711,27.9956617 L6.00006311,27.9956617 L6.00006311,24.6165843 C5.99581313,23.0746303 7.16505977,21.7823582 8.70005537,21.6323991 L15.0510371,20.9975725 L28,20.9975725 L28,18.9981184 L17.4140304,18.9981184 L22.1210169,14.2924033 C22.3087663,14.1047045 22.5635156,13.9992333 22.8290148,13.9994833 Z M13.0000516,25.9962076 C14.6569133,25.9962076 16.0000344,27.338966 16.0000344,28.9953887 C16.0000344,30.6518114 14.6569133,31.9945698 13.0000516,31.9945698 C11.3431728,31.9945698 10.0000516,30.6518114 10.0000516,28.9953887 C10.0000516,27.338966 11.3431728,25.9962076 13.0000516,25.9962076 Z" id="Shape"></path>
                <rect id="Rectangle" x="24" y="23" width="4" height="2"></rect>
                <rect id="Rectangle" x="12" y="28" width="2" height="2"></rect>
                <rect id="Rectangle" x="4" y="12" width="9" height="2"></rect>
                <rect id="Rectangle" x="4" y="16" width="5" height="2"></rect>
                <path d="M11,36 L5,36 C4.44775,36 4,36.44775 4,37 L4,43 C4,43.55225 4.44775,44 5,44 L11,44 C11.55225,44 12,43.55225 12,43 L12,37 C12,36.44775 11.55225,36 11,36 Z M10,42 L6,42 L6,38 L10,38 L10,42 Z" id="Shape"></path>
                <rect id="Rectangle" x="14" y="36" width="7" height="2"></rect>
                <rect id="Rectangle" x="14" y="40" width="14" height="2"></rect>
                <rect id="Rectangle" x="23" y="36" width="5" height="2"></rect>
                <rect id="Rectangle" x="14" y="46" width="7" height="2"></rect>
                <rect id="Rectangle" x="23" y="46" width="5" height="2"></rect>
            </g>
            <g id="Group" transform="translate(39.000000, 89.000000)">
                <circle id="Oval" stroke="#5032B5" stroke-width="2" fill="url(#linearGradient-4)" cx="11" cy="11" r="12"></circle>
                <text id="1" font-family="Lato-Black, Lato" font-size="15" font-weight="700" fill="#FFFFFF">
                    <tspan x="6.15" y="16">1</tspan>
                </text>
            </g>
        </g>
    </g>
</svg>