<?xml version="1.0" encoding="UTF-8"?>
<svg width="144px" height="144px" viewBox="0 0 144 144" version="1.1" xmlns="http://www.w3.org/2000/svg" xmlns:xlink="http://www.w3.org/1999/xlink">
    <!-- Generator: Sketch 58 (84663) - https://sketch.com -->
    <title>icon3</title>
    <desc>Created with Sketch.</desc>
    <defs>
        <linearGradient x1="100%" y1="0%" x2="0%" y2="100%" id="linearGradient-1">
            <stop stop-color="#FA5E1D" offset="0%"></stop>
            <stop stop-color="#F67F2A" offset="100%"></stop>
        </linearGradient>
        <rect id="path-2" x="0" y="0" width="100" height="100" rx="12"></rect>
        <filter x="-32.5%" y="-32.5%" width="165.0%" height="165.0%" filterUnits="objectBoundingBox" id="filter-3">
            <feMorphology radius="5" operator="dilate" in="SourceAlpha" result="shadowSpreadOuter1"></feMorphology>
            <feOffset dx="0" dy="0" in="shadowSpreadOuter1" result="shadowOffsetOuter1"></feOffset>
            <feGaussianBlur stdDeviation="7.5" in="shadowOffsetOuter1" result="shadowBlurOuter1"></feGaussianBlur>
            <feComposite in="shadowBlurOuter1" in2="SourceAlpha" operator="out" result="shadowBlurOuter1"></feComposite>
            <feColorMatrix values="0 0 0 0 0.580392157   0 0 0 0 0.607843137   0 0 0 0 0.674509804  0 0 0 0.343941215 0" type="matrix" in="shadowBlurOuter1"></feColorMatrix>
        </filter>
        <linearGradient x1="34.0877757%" y1="0%" x2="71.3005515%" y2="100%" id="linearGradient-4">
            <stop stop-color="#6648CD" offset="0%"></stop>
            <stop stop-color="#843DDD" offset="100%"></stop>
        </linearGradient>
    </defs>
    <g id="Page-1" stroke="none" stroke-width="1" fill="none" fill-rule="evenodd">
        <g id="icon3" transform="translate(22.000000, 22.000000)">
            <g id="Rectangle">
                <use fill="black" fill-opacity="1" filter="url(#filter-3)" xlink:href="#path-2"></use>
                <use stroke="#FFFFFF" stroke-width="5" fill="url(#linearGradient-1)" fill-rule="evenodd" xlink:href="#path-2"></use>
            </g>
            <g id="Group" transform="translate(39.000000, 89.000000)">
                <circle id="Oval" stroke="#5032B5" stroke-width="2" fill="url(#linearGradient-4)" cx="11" cy="11" r="12"></circle>
                <text id="3" font-family="Lato-Black, Lato" font-size="15" font-weight="700" fill="#FFFFFF">
                    <tspan x="6.15" y="16">3</tspan>
                </text>
            </g>
            <g id="002-steering-wheel" transform="translate(20.000000, 20.000000)" fill="#FFFFFF" fill-rule="nonzero">
                <path d="M34,25 C34,22.7943278 32.2055485,21 30,21 C27.7944515,21 26,22.7944515 26,25 C26,27.2055485 27.7944515,29 30,29 C32.2055485,29 34,27.2055485 34,25 Z M28.4741286,25 C28.4741286,24.1586305 29.1586305,23.4742523 29.9998763,23.4742523 C30.8411221,23.4742523 31.525624,24.1587542 31.525624,25 C31.525624,25.8412458 30.8411221,26.5257477 29.9998763,26.5257477 C29.1586305,26.5257477 28.4741286,25.8412458 28.4741286,25 Z" id="XMLID_521_"></path>
                <path d="M59.9088249,42.4012516 L57.9827518,37.8438896 L59.0298109,36.2630768 C59.8960516,34.9552343 60.1521035,33.3402857 59.7323424,31.8322727 L58.7589935,28.3357911 C58.3323183,26.803047 57.3562741,25.4819682 56.0106245,24.6159173 C55.7937128,24.4762392 55.5375436,24.4138891 55.2826636,24.4332792 C54.731771,12.9995266 46.3432282,3.260605 34.9294054,1.02784478 C34.2948418,0.903492926 33.6780907,1.31300646 33.5527014,1.94208056 C33.4273121,2.57115465 33.8403936,3.18188366 34.4754258,3.30611941 C45.1910531,5.40233641 52.9685868,14.7916563 52.9685868,25.6318639 C52.9685868,25.9530191 52.9592119,26.276032 52.9457355,26.5978839 L50.4990039,27.8928384 C50.5822062,27.1435923 50.624862,26.3870314 50.624862,25.6318639 C50.624862,24.3712774 50.5082617,23.1372797 50.2866625,21.9391595 C50.2818578,21.9063008 50.2754126,21.8740228 50.2677955,21.8418608 C48.4691038,12.37858 40.0659127,5.19682494 30.0000832,5.19682494 C19.930035,5.19682494 11.5239143,12.3847338 9.73002725,21.853936 C9.72393357,21.8809893 9.71830863,21.9080425 9.71420711,21.9355601 C9.49213918,23.1348414 9.3753045,24.3700002 9.3753045,25.6318639 C9.3753045,26.3873798 9.41807747,27.1434762 9.50127971,27.8928384 L7.05325909,26.5973034 C7.03978268,26.2767287 7.03157964,25.9532513 7.03157964,25.6318639 C7.03157964,14.7777233 14.8209492,5.38608127 25.5529825,3.30066232 C26.1880148,3.17723933 26.6019166,2.56709087 26.4773476,1.93778456 C26.3527786,1.30871046 25.7377852,0.898500274 25.1018155,1.02192327 C13.6701803,3.24330488 5.26851262,12.985013 4.71738572,24.4333953 C4.46250564,24.4140052 4.2064537,24.4763553 3.98954196,24.6160334 C2.64389233,25.4820843 1.66784812,26.8031631 1.24117301,28.3359072 L0.267824075,31.8323888 C-0.152054233,33.3404018 0.104114894,34.9553504 0.970355601,36.2631929 L2.01741468,37.8440057 L0.0912244074,42.4012516 C-0.158733849,42.9927066 0.12263032,43.6729844 0.719577041,43.9206432 C0.86746608,43.9820644 1.02074569,44.0110914 1.17168157,44.0110914 C1.62987978,44.0110914 2.06510948,43.7429977 2.2531934,43.2980711 L4.0454398,39.05722 L9.14233824,40.1225125 L4.71949507,58.57036 C4.56996542,59.1943254 4.95914093,59.8202645 5.58878262,59.9684186 C5.67983633,59.9898986 5.77089004,60 5.86053751,60 C6.39092245,60 6.8717376,59.6406452 6.99970498,59.1071281 L11.0422788,42.2456666 C15.8201963,47.5887327 22.7204738,50.7111137 29.999966,50.7111137 C34.0307041,50.7111137 38.0417548,49.7489253 41.5994119,47.9284652 C44.3720384,46.5097394 46.881699,44.5670174 48.9578877,42.2467116 L53.0001099,59.107012 C53.1280773,59.6406452 53.6087753,60 54.1392774,60 C54.2289249,60 54.3199786,59.9896664 54.4110323,59.9683025 C55.0407912,59.8201484 55.4299667,59.1942093 55.2803198,58.5702439 L50.857711,40.1226286 L55.9546095,39.0573361 L57.7468559,43.2981872 C57.9349398,43.7432299 58.3700523,44.0112076 58.8283677,44.0112076 C58.9791864,44.0112076 59.1325832,43.9820644 59.2804722,43.9207593 C59.877419,43.6729844 60.1586659,42.9927066 59.9088249,42.4012516 Z M54.9281752,28.1813672 C55.1077045,28.0862746 55.2592263,27.9465965 55.3677408,27.7758013 L55.6390269,27.3488716 C56.0381633,27.8107499 56.3335898,28.357155 56.4995255,28.9533705 L57.4728744,32.4499682 C57.7134578,33.3141613 57.5667406,34.2397757 57.0703397,34.989254 L55.9466408,36.6858266 L49.8296361,37.9644099 L48.7463665,36.86115 C47.9275862,36.027145 47.4766536,34.9272522 47.4766536,33.7637322 L47.4766536,30.9633191 C47.4766536,30.6192906 47.7114948,30.3189187 48.0478193,30.2329987 L48.3236757,30.1624049 C49.1549949,30.6421639 50.2054524,30.6808279 51.0790758,30.218369 L54.9281752,28.1813672 Z M14.7275518,30.0587203 L21.6872427,30.0587203 C23.8154621,30.0587203 25.547006,31.7742186 25.547006,33.8829753 L25.547006,43.2053007 C21.1015459,42.1101684 17.2107283,39.3883605 14.6482167,35.4662264 C14.7917698,34.916338 14.8672378,34.3455502 14.8672378,33.7638483 L14.8672378,30.9633191 C14.8671206,30.6499431 14.8169649,30.3464363 14.7275518,30.0587203 Z M21.6872427,27.7365568 L11.8413718,27.7365568 C11.7601617,27.0396755 11.7189122,26.3354794 11.7189122,25.6318639 C11.7189122,24.7562921 11.7832474,23.8954661 11.9050039,23.052753 L23.8038606,20.2082188 C27.8573328,19.239296 32.1425993,19.239296 36.1960715,20.2082188 L48.0949282,23.0526369 C48.2166847,23.89535 48.2811371,24.7562921 48.2811371,25.6318639 C48.2811371,26.3353633 48.2391844,27.0397916 48.1579744,27.7365568 L38.3129237,27.7365568 C34.8923745,27.7365568 32.1094356,30.4937776 32.1094356,33.8829753 L32.1094356,43.6239868 C31.4147556,43.702592 30.7111694,43.7447393 30.0000832,43.7447393 C29.2889971,43.7447393 28.5854109,43.702592 27.8907309,43.6239868 L27.8907309,33.8829753 C27.8907309,30.4937776 25.107792,27.7365568 21.6872427,27.7365568 Z M34.4531605,33.8828592 C34.4531605,31.7742186 36.1845872,30.0586042 38.3129237,30.0586042 L45.2726147,30.0586042 C45.1832016,30.3464363 45.1330459,30.649827 45.1330459,30.963203 L45.1330459,33.7636161 C45.1330459,34.345318 45.2085138,34.9161058 45.352067,35.4659941 C42.7895554,39.3882444 38.8987378,42.1099362 34.4531605,43.2050685 L34.4531605,33.8828592 L34.4531605,33.8828592 Z M30.0000832,7.51898846 C38.2934708,7.51898846 45.3136299,13.0196133 47.5421607,20.5316961 L36.7457921,17.9507275 C32.3326754,16.8958847 27.6671395,16.8958847 23.2543744,17.9507275 L12.4580058,20.5316961 C14.6865366,13.0196133 21.7065785,7.51898846 30.0000832,7.51898846 Z M2.52717484,32.4498521 L3.50052377,28.9532543 C3.66657668,28.3570389 3.96188601,27.8106338 4.36102235,27.3487555 L4.6323085,27.7756852 C4.74082296,27.9463642 4.89234478,28.0861585 5.0718741,28.1812511 L8.92097343,30.2182529 C9.79459687,30.6805957 10.8450544,30.6420478 11.6763736,30.1622888 L11.9523472,30.2328826 C12.2886717,30.3188026 12.5235129,30.6191745 12.5235129,30.963203 L12.5235129,33.7636161 C12.5235129,34.9271361 12.0725802,36.0270288 11.2538,36.8610339 L10.1705303,37.9642938 L4.05352565,36.6857105 L2.92970958,34.9891379 C2.43330866,34.2396596 2.28659148,33.3141613 2.52717484,32.4498521 Z M30.0000832,48.3890663 C22.8985969,48.3890663 16.1946063,45.114003 11.8536763,39.5804035 L12.9336648,38.4803946 C13.1281939,38.2821979 13.3074889,38.0730871 13.4743621,37.8564293 C15.1841094,40.1201904 17.3592032,42.0263383 19.8448406,43.4220747 C22.9263701,45.1524348 26.437973,46.0670189 30.0002004,46.0670189 C33.5628966,46.0670189 37.0750855,45.1520865 40.1569665,43.4212619 C42.6420179,42.0255255 44.8165258,40.1197259 46.5259216,37.8564293 C46.6927948,38.0732032 46.8719725,38.2823141 47.0666189,38.4805107 L48.1475448,39.5814484 C43.8113023,45.1063399 37.0716871,48.3890663 30.0000832,48.3890663 Z" id="XMLID_524_"></path>
                <path d="M29.9878982,2 L30.0121018,2 C30.557718,2 31,1.5523 31,1 C31,0.4477 30.557718,0 30.0121018,0 L29.9878982,0 C29.442282,0 29,0.4477 29,1 C29,1.5523 29.442282,2 29.9878982,2 Z" id="XMLID_531_"></path>
            </g>
        </g>
    </g>
</svg>