<?xml version="1.0" encoding="UTF-8"?>
<svg width="144px" height="144px" viewBox="0 0 144 144" version="1.1" xmlns="http://www.w3.org/2000/svg" xmlns:xlink="http://www.w3.org/1999/xlink">
    <!-- Generator: Sketch 58 (84663) - https://sketch.com -->
    <title>icon4</title>
    <desc>Created with Sketch.</desc>
    <defs>
        <linearGradient x1="100%" y1="0%" x2="0%" y2="100%" id="linearGradient-1">
            <stop stop-color="#FA5E1D" offset="0%"></stop>
            <stop stop-color="#F67F2A" offset="100%"></stop>
        </linearGradient>
        <rect id="path-2" x="0" y="0" width="100" height="100" rx="12"></rect>
        <filter x="-32.5%" y="-32.5%" width="165.0%" height="165.0%" filterUnits="objectBoundingBox" id="filter-3">
            <feMorphology radius="5" operator="dilate" in="SourceAlpha" result="shadowSpreadOuter1"></feMorphology>
            <feOffset dx="0" dy="0" in="shadowSpreadOuter1" result="shadowOffsetOuter1"></feOffset>
            <feGaussianBlur stdDeviation="7.5" in="shadowOffsetOuter1" result="shadowBlurOuter1"></feGaussianBlur>
            <feComposite in="shadowBlurOuter1" in2="SourceAlpha" operator="out" result="shadowBlurOuter1"></feComposite>
            <feColorMatrix values="0 0 0 0 0.580392157   0 0 0 0 0.607843137   0 0 0 0 0.674509804  0 0 0 0.343941215 0" type="matrix" in="shadowBlurOuter1"></feColorMatrix>
        </filter>
        <linearGradient x1="34.0877757%" y1="0%" x2="71.3005515%" y2="100%" id="linearGradient-4">
            <stop stop-color="#6648CD" offset="0%"></stop>
            <stop stop-color="#843DDD" offset="100%"></stop>
        </linearGradient>
    </defs>
    <g id="Page-1" stroke="none" stroke-width="1" fill="none" fill-rule="evenodd">
        <g id="icon4" transform="translate(22.000000, 22.000000)">
            <g id="Rectangle">
                <use fill="black" fill-opacity="1" filter="url(#filter-3)" xlink:href="#path-2"></use>
                <use stroke="#FFFFFF" stroke-width="5" fill="url(#linearGradient-1)" fill-rule="evenodd" xlink:href="#path-2"></use>
            </g>
            <g id="004-rating" transform="translate(20.000000, 20.000000)" fill="#FFFFFF" fill-rule="nonzero">
                <path d="M17.2632394,36.7641483 C18.1205624,36.3259135 19.1494418,36.6531954 19.6057404,37.509217 L22.8440959,43.5843216 C23.0936324,44.0524148 23.6251589,44.288727 24.1342088,44.1586043 C24.6432587,44.0282492 25,43.5642223 25,43.0322295 L25,34.1616938 C24.9997886,33.5201423 24.486381,33 23.8530216,33 C23.2196621,33 22.7062545,33.5202585 22.7062545,34.16181 L22.7062545,38.4361091 L21.6237064,36.4052652 C20.5730385,34.4344868 18.2037031,33.6805883 16.230117,34.6897365 C14.5410438,35.5530775 13.671221,37.4572841 14.1149051,39.3204788 L16.2142916,48.1364094 C16.7049932,50.197228 17.5798618,52.110032 18.8144712,53.8217267 L22.9272365,59.5235417 C23.1517735,59.8349068 23.5005054,60 23.8540537,60 C24.0887969,60 24.3257189,59.9271545 24.5297288,59.7761192 C25.0410722,59.3974853 25.1527673,58.6705408 24.779036,58.1524897 L20.6662706,52.4506747 C19.6110156,50.9877235 18.8633235,49.3529407 18.4439508,47.5915205 L16.3445643,38.7754738 C16.1517928,37.9661569 16.5296525,37.1391805 17.2632394,36.7641483 Z" id="Path"></path>
                <path d="M43.9921831,31.245636 C43.2974901,31.245636 42.6435299,31.424716 42.0732718,31.7391429 C41.4955971,30.2242521 40.0364005,29.1456242 38.3306885,29.1456242 C37.5950273,29.1456242 36.9056319,29.3471039 36.3124176,29.6967306 C35.6783528,28.3079424 34.2843756,27.3406024 32.6693115,27.3406024 C32.0798644,27.3406024 31.5203193,27.4703791 31.0158693,27.7013697 L31.0158693,22.0349288 C31.0158693,19.810118 29.2179789,18 27.0079346,18 C24.7978904,18 23,19.8099995 23,22.0349288 L23,24.0893114 C23,24.7437651 23.5270531,25.2744866 24.1772462,25.2744866 C24.8274393,25.2744866 25.3544924,24.7437651 25.3544924,24.0893114 L25.3544924,22.0350473 C25.3544924,21.1172477 26.0962752,20.3704688 27.0079346,20.3704688 C27.9195941,20.3704688 28.6613769,21.1172477 28.6613769,22.0350473 L28.6613769,38.7586983 C28.6613769,39.4131521 29.18843,39.9438735 29.8386231,39.9438735 C30.4888162,39.9438735 31.0158693,39.4131521 31.0158693,38.7586983 L31.0158693,31.3754127 C31.0158693,30.4576131 31.7575344,29.7108342 32.6693115,29.7108342 C33.5810887,29.7108342 34.3227538,30.4576131 34.3227538,31.3754127 L34.3227538,38.7586983 C34.3227538,39.4131521 34.8498069,39.9438735 35.5,39.9438735 C36.1501931,39.9438735 36.6772462,39.4131521 36.6772462,38.7586983 L36.6772462,33.180553 C36.6772462,32.2626348 37.4189113,31.515856 38.3306885,31.515856 C39.2424656,31.515856 39.9841307,32.2626348 39.9841307,33.180553 L39.9841307,38.7586983 C39.9841307,39.4131521 40.5111838,39.9438735 41.1613769,39.9438735 C41.81157,39.9438735 42.3386231,39.4131521 42.3386231,38.7586983 L42.3386231,35.2803278 C42.3386231,34.3625281 43.0804059,33.6157493 43.9920654,33.6157493 C44.9037248,33.6157493 45.6455076,34.3625281 45.6455076,35.2803278 L45.6455076,45.2807172 C45.6455076,47.945465 45.2438312,50.5860353 44.45178,53.12871 L42.7911565,58.4598649 C42.5966755,59.0844522 42.941844,59.7495725 43.5622528,59.9453634 C43.6795065,59.9824594 43.7980552,60 43.914838,60 C44.4156385,60 44.8800622,59.6756176 45.0378131,59.1690737 L46.6984366,53.8379188 C47.5620644,51.0653201 48,48.1861741 48,45.2807172 L48,35.2803278 C48,33.055754 46.2022273,31.245636 43.9921831,31.245636 Z" id="Path"></path>
                <path d="M59.903592,6.34304792 C59.6738522,5.60873328 59.0742956,5.08374436 58.3389209,4.97286154 L54.8135192,4.44165265 L53.236072,1.1221055 C52.9072309,0.429895232 52.2414918,0 51.4987507,0 C51.4986356,0 51.4984054,0 51.4982903,0 C50.7552039,0 50.0894647,0.430493305 49.7608539,1.12306242 L48.1851332,4.44332726 L44.6599616,4.97668921 C43.924702,5.08793088 43.3253757,5.61327864 43.0960962,6.34783251 C42.8667017,7.08226677 43.0548904,7.87315916 43.5869983,8.41190377 L46.1386529,10.9953421 L45.5373699,14.6443081 C45.4120258,15.4054164 45.707603,16.1600656 46.3087709,16.6136445 C46.6483163,16.8699788 47.0455268,17 47.4453847,17 C47.7535077,17 48.0632421,16.9227289 48.349381,16.7663925 L51.5020886,15.0427447 L54.6557169,16.7647179 C55.313399,17.1240404 56.0953893,17.0649508 56.696327,16.6107738 C57.2972648,16.1567164 57.5924966,15.4020672 57.4665771,14.6409589 L56.8634524,10.9923517 L59.4137259,8.40759764 C59.9456036,7.86837458 60.1333319,7.07724295 59.903592,6.34304792 Z M55.1192251,9.41858109 C54.6623927,9.88137036 54.4542917,10.5478635 54.5623707,11.201199 L55.0729549,14.2900094 L52.4033226,12.8323846 C51.8385263,12.5237787 51.1642697,12.5241375 50.5997036,12.8327435 L47.9307619,14.2919232 L48.4398497,11.2026343 C48.5473533,10.5492988 48.3389069,9.88316458 47.8819594,9.42049492 L45.7217603,7.23345975 L48.7063065,6.78203387 C49.3374005,6.68646173 49.8827449,6.2745087 50.1648553,5.67990403 L51.4988658,2.86919781 L52.8342574,5.67906672 C53.1167131,6.27355178 53.6621726,6.68514597 54.2936119,6.78047888 L57.2781582,7.23034977 L55.1192251,9.41858109 Z" id="Shape"></path>
                <path d="M37.903592,6.34309255 C37.6738522,5.60877274 37.0744107,5.08366052 36.339036,4.97289653 L32.8136343,4.44168391 L31.2361871,1.1221134 C30.9072309,0.429898256 30.2416069,0 29.4987507,0 C29.4986356,0 29.4984054,0 29.4981752,0 C28.7552039,0 28.0894647,0.430496334 27.7608539,1.12307032 L26.1851332,4.44335852 L22.6599616,4.97672422 C21.924702,5.08796668 21.3253757,5.61331814 21.0960962,6.34787718 C20.8667017,7.0823166 21.0548904,7.87321456 21.5869983,8.41196296 L24.1385378,10.9952998 L23.5372548,14.6442915 C23.4119107,15.4054052 23.7074879,16.1600597 24.3086558,16.6136418 C24.6482012,16.8699779 25.0454117,17 25.4452696,17 C25.7533926,17 26.063127,16.9227284 26.3492659,16.7663908 L29.5020886,15.0428505 L32.6557169,16.7647162 C33.313399,17.1240413 34.0953893,17.0649512 34.696327,16.610771 C35.2972648,16.1567104 35.5924966,15.402056 35.4665771,14.6409423 L34.8634524,10.9923094 L37.4137259,8.40753719 C37.9456036,7.86842994 38.1333319,7.07741236 37.903592,6.34309255 Z M33.1193402,9.41864736 C32.6626229,9.88132027 32.4545219,10.5476985 32.5624858,11.2012778 L33.07307,14.2901099 L30.4034377,12.8324749 C29.8385263,12.5239864 29.1641546,12.524106 28.5998187,12.8328338 L25.9307619,14.2920238 L26.4398497,11.2027132 C26.5473533,10.5492535 26.3389069,9.88311451 25.8819594,9.42056121 L23.7218754,7.23351065 L26.7063065,6.78208159 C27.3374005,6.68650877 27.8827449,6.27455285 28.1649704,5.67994399 L29.4989809,2.86909838 L30.8343725,5.67910668 C31.1167131,6.27347631 31.6621726,6.685193 32.293727,6.78052659 L35.2782733,7.23040064 L33.1193402,9.41864736 Z" id="Shape"></path>
                <path d="M16.9035897,6.34304789 C16.6738505,5.60873325 16.0742955,5.08374434 15.3389227,4.97286151 L11.8135302,4.44165263 L10.2362022,1.12210549 C9.90724691,0.42989523 9.24162463,0 8.49877036,0 C8.49865526,0 8.49842506,0 8.49819486,0 C7.7552255,0 7.08948812,0.430493303 6.76087812,1.12306241 L5.18516153,4.44332724 L1.65999922,4.97668918 C0.924741546,5.08793085 0.325531863,5.61327861 0.0961379135,6.34771287 C-0.133256036,7.08214712 0.0547019768,7.87303951 0.586923563,8.41190373 L3.13857156,10.995342 L2.53729008,14.644308 C2.41194637,15.4054164 2.70752272,16.1600655 3.3086891,16.6137641 C3.64834868,16.8699787 4.04544307,17 4.44541496,17 C4.75353719,17 5.06327082,16.9227288 5.34940898,16.7663924 L8.50222336,15.0428642 L11.6558434,16.7647178 C12.3136389,17.1238011 13.095512,17.0648311 13.6964482,16.6108933 C14.2973844,16.1567163 14.5925003,15.4018279 14.4666962,14.6408392 L13.8635732,10.992232 L16.41384,8.40747799 C16.9456011,7.86837454 17.133329,7.07736253 16.9035897,6.34304789 Z M12.1193504,9.41846143 C11.6625192,9.88113109 11.4543036,10.5476242 11.5623824,11.2011989 L12.0729652,14.2900093 L9.40345498,12.8323846 C8.83866014,12.5238983 8.16429027,12.5240179 7.59984074,12.8327434 L4.93067582,14.2920427 L5.43964724,11.2029931 C5.54738068,10.5496576 5.3389349,9.88340376 4.88187349,9.42061449 L2.7219102,7.23345971 L5.70633353,6.78203384 C6.33742587,6.68646169 6.88276883,6.27450867 7.1648785,5.679904 L8.49888546,2.86907818 L9.83427362,5.6790667 C10.1166135,6.27343214 10.6620716,6.68514593 11.2936243,6.78047885 L14.2782778,7.23034973 L12.1193504,9.41846143 Z" id="Shape"></path>
                <path d="M24.707,28.293 C24.521,28.1069 24.2631,28 24,28 C23.737,28 23.479,28.1069 23.293,28.293 C23.107,28.4791 23,28.7369 23,29 C23,29.263 23.107,29.521 23.293,29.7069 C23.479,29.8929 23.737,30 24,30 C24.263,30 24.521,29.893 24.707,29.7069 C24.893,29.521 25,29.263 25,29 C25,28.7368 24.893,28.4789 24.707,28.293 Z" id="Path"></path>
            </g>
            <g id="Group" transform="translate(39.000000, 89.000000)">
                <circle id="Oval" stroke="#5032B5" stroke-width="2" fill="url(#linearGradient-4)" cx="11" cy="11" r="12"></circle>
                <text id="4" font-family="Lato-Black, Lato" font-size="15" font-weight="700" fill="#FFFFFF">
                    <tspan x="6.15" y="16">4</tspan>
                </text>
            </g>
        </g>
    </g>
</svg>