<?xml version="1.0" encoding="UTF-8"?>
<svg width="144px" height="144px" viewBox="0 0 144 144" version="1.1" xmlns="http://www.w3.org/2000/svg" xmlns:xlink="http://www.w3.org/1999/xlink">
    <!-- Generator: Sketch 58 (84663) - https://sketch.com -->
    <title>icon2</title>
    <desc>Created with Sketch.</desc>
    <defs>
        <linearGradient x1="100%" y1="0%" x2="0%" y2="100%" id="linearGradient-1">
            <stop stop-color="#FA5E1D" offset="0%"></stop>
            <stop stop-color="#F67F2A" offset="100%"></stop>
        </linearGradient>
        <rect id="path-2" x="0" y="0" width="100" height="100" rx="12"></rect>
        <filter x="-32.5%" y="-32.5%" width="165.0%" height="165.0%" filterUnits="objectBoundingBox" id="filter-3">
            <feMorphology radius="5" operator="dilate" in="SourceAlpha" result="shadowSpreadOuter1"></feMorphology>
            <feOffset dx="0" dy="0" in="shadowSpreadOuter1" result="shadowOffsetOuter1"></feOffset>
            <feGaussianBlur stdDeviation="7.5" in="shadowOffsetOuter1" result="shadowBlurOuter1"></feGaussianBlur>
            <feComposite in="shadowBlurOuter1" in2="SourceAlpha" operator="out" result="shadowBlurOuter1"></feComposite>
            <feColorMatrix values="0 0 0 0 0.580392157   0 0 0 0 0.607843137   0 0 0 0 0.674509804  0 0 0 0.343941215 0" type="matrix" in="shadowBlurOuter1"></feColorMatrix>
        </filter>
        <linearGradient x1="34.0877757%" y1="0%" x2="71.3005515%" y2="100%" id="linearGradient-4">
            <stop stop-color="#6648CD" offset="0%"></stop>
            <stop stop-color="#843DDD" offset="100%"></stop>
        </linearGradient>
    </defs>
    <g id="Page-1" stroke="none" stroke-width="1" fill="none" fill-rule="evenodd">
        <g id="icon2" transform="translate(22.000000, 22.000000)">
            <g id="Rectangle">
                <use fill="black" fill-opacity="1" filter="url(#filter-3)" xlink:href="#path-2"></use>
                <use stroke="#FFFFFF" stroke-width="5" fill="url(#linearGradient-1)" fill-rule="evenodd" xlink:href="#path-2"></use>
            </g>
            <g id="Group" transform="translate(39.000000, 89.000000)">
                <circle id="Oval" stroke="#5032B5" stroke-width="2" fill="url(#linearGradient-4)" cx="11" cy="11" r="12"></circle>
                <text id="2" font-family="Lato-Black, Lato" font-size="15" font-weight="700" fill="#FFFFFF">
                    <tspan x="6.15" y="16">2</tspan>
                </text>
            </g>
            <g id="003-car-service" transform="translate(20.000000, 20.000000)" fill="#FFFFFF" fill-rule="nonzero">
                <polygon id="Path" points="0 58 0 60 60 60 60 58 44.516129 58 15.483871 58"></polygon>
                <path d="M15.5,46 C13.56975,46 12,47.794 12,50 C12,52.206 13.56975,54 15.5,54 C17.43025,54 19,52.206 19,50 C19,47.794 17.43025,46 15.5,46 Z M15.5,52 C14.67275,52 14,51.103 14,50 C14,48.897 14.67275,48 15.5,48 C16.32725,48 17,48.897 17,50 C17,51.103 16.32725,52 15.5,52 Z" id="Shape"></path>
                <path d="M44.5,46 C42.56975,46 41,47.794 41,50 C41,52.206 42.56975,54 44.5,54 C46.43025,54 48,52.206 48,50 C48,47.794 46.43025,46 44.5,46 Z M45,52 C43.897,52 43,51.103 43,50 C43,48.897 43.897,48 45,48 C46.103,48 47,48.897 47,50 C47,51.103 46.103,52 45,52 Z" id="Shape"></path>
                <path d="M59.4648387,37.685586 L51.9222581,33.8968675 L44.1232258,23.7109802 C42.8496774,22.048494 40.8425806,21.0558634 38.7532258,21.0558634 L27.3512903,21.0558634 C28.4516129,18.9694919 29.0322581,16.6536779 29.0322581,14.2503646 C29.0322581,12.063855 28.5619355,9.96095588 27.6348387,8 L25.886129,8.83415972 C26.6893548,10.5326178 27.0967742,12.354547 27.0967742,14.2503646 C27.0967742,16.8413152 26.3196774,19.3156001 24.8603226,21.4311381 C23.6148387,21.8618289 22.4980645,22.6473779 21.6832258,23.7119524 L20.3670968,25.4298548 C18.5748387,26.3787357 16.5580645,26.8891481 14.516129,26.8891481 C11.5393548,26.8891481 8.73,25.8615178 6.47612903,23.9725058 L9.67741935,23.9725058 L9.67741935,22.0280775 L4.83870968,22.0280775 C4.30451613,22.0280775 3.87096774,22.4636295 3.87096774,23.0002917 L3.87096774,27.8613623 L5.80645161,27.8613623 L5.80645161,25.898462 C8.30516129,27.7942795 11.3235484,28.8335764 14.516129,28.8335764 C15.7306452,28.8335764 16.9393548,28.6799666 18.1083871,28.3805246 L13.9654839,33.7908962 L4.59,35.8092127 C1.93064516,36.3818468 0,38.7802991 0,41.5131929 L0,48.2778588 C0,49.885901 1.30258065,51.1945012 2.90322581,51.1945012 L7.80870968,51.1945012 C8.28774194,55.0250248 11.5432258,58 15.483871,58 C19.4245161,58 22.68,55.0250248 23.1590323,51.1945012 L36.8419355,51.1945012 C37.3209677,55.0250248 40.5764516,58 44.5170968,58 C48.4577419,58 51.7132258,55.0250248 52.1922581,51.1945012 L57.0967742,51.1945012 C58.6974194,51.1945012 60,49.885901 60,48.2778588 L60,38.5557176 C60,38.1872484 59.7929032,37.8508624 59.4648387,37.685586 Z M58,45 L56,45 L56,38 L58,38.9482525 L58,45 Z M2.004,41 L4,41 L4,43 L2,43 L2,41.042 C2,41.028 2.004,41.014 2.004,41 L2.004,41 Z M15,56 C11.691,56 9,53.309 9,50 C9,46.691 11.691,44 15,44 C18.309,44 21,46.691 21,50 C21,53.309 18.309,56 15,56 Z M45,56 C41.691,56 39,53.309 39,50 C39,46.691 41.691,44 45,44 C48.309,44 51,46.691 51,50 C51,53.309 48.309,56 45,56 Z M57.0344828,49 L52.1402759,49 C51.6623448,45.2059259 48.4143448,42.2592593 44.4827586,42.2592593 C40.5511724,42.2592593 37.3031724,45.2059259 36.8252414,49 L23.1747586,49 C22.6968276,45.2059259 19.4488276,42.2592593 15.5172414,42.2592593 C11.5856552,42.2592593 8.33765517,45.2059259 7.85972414,49 L2.96551724,49 C2.43351724,49 2,48.5676296 2,48.037037 L2,45.1481481 L4.89655172,45.1481481 C5.42951724,45.1481481 5.86206897,44.7167407 5.86206897,44.1851852 L5.86206897,40.3333333 C5.86206897,39.8017778 5.42951724,39.3703704 4.89655172,39.3703704 L2.55517241,39.3703704 C3.09296552,38.4748148 3.98124138,37.7997778 5.05296552,37.5705926 L14.7544828,35.4973333 C14.9784828,35.4491852 15.1773793,35.324 15.3173793,35.142963 L23.2336552,24.8797037 C24.1402759,23.702 25.5711724,23 27.06,23 L38.734069,23 C40.2228966,23 41.6528276,23.702 42.5604138,24.8797037 L50.4766897,35.142963 C50.5655172,35.2585185 50.6794483,35.3519259 50.8097931,35.4174074 L54.137931,37.0765926 L54.137931,46.1111111 C54.137931,46.6426667 54.5704828,47.0740741 55.1034483,47.0740741 L58,47.0740741 L58,48.037037 C58,48.5676296 57.5664828,49 57.0344828,49 L57.0344828,49 Z" id="Shape"></path>
                <path d="M46.8908686,36.462 C47.0571364,36.131 47.0320029,35.732 46.8251348,35.427 L40.9245596,26.707 C40.2024545,25.638 39.0182795,25 37.7567706,25 L27.2432294,25 C25.9817205,25 24.7975455,25.638 24.0754404,26.707 L18.1748652,35.427 C17.9679971,35.732 17.9428636,36.131 18.1091314,36.462 C18.2753993,36.792 18.6060016,37 18.9665708,37 L46.0334292,37 C46.3939984,37 46.7246007,36.792 46.8908686,36.462 Z M25.9673256,27.853 C26.3376659,27.319 26.9462948,27 27.5936456,27 L32,27 L32,35 L21,35 L25.9673256,27.853 Z M33,35 L33,27 L37.4063544,27 C38.0537052,27 38.6623341,27.319 39.0326744,27.853 L44,35 L33,35 Z" id="Shape"></path>
                <polygon id="Path" points="30 39 34 39 34 41 30 41"></polygon>
                <polygon id="Path" points="44 39 47 39 47 41 44 41"></polygon>
                <path d="M3.125,20.1591768 C2.32788462,18.4471511 1.92307692,16.6106678 1.92307692,14.699706 C1.92307692,7.6752065 7.53076923,1.9599608 14.4230769,1.9599608 C17.3807692,1.9599608 20.1721154,2.99580008 22.4115385,4.899902 L19.2307692,4.899902 L19.2307692,6.8598628 L24.0384615,6.8598628 C24.5692308,6.8598628 25,6.42083158 25,5.8798824 L25,0.9799804 L23.0769231,0.9799804 L23.0769231,2.95856083 C20.5942308,1.04759905 17.5951923,0 14.4230769,0 C6.47019231,0 0,6.59428811 0,14.699706 C0,16.9036819 0.467307692,19.0233795 1.38846154,21 L3.125,20.1591768 Z" id="Path"></path>
                <path d="M13.3208565,19.2495724 L10.4716916,15.5961925 L9,16.8036737 L12.7687366,21.6374656 C12.9486938,21.8675541 13.2200428,22 13.5045824,22 C13.5375589,22 13.5705353,21.9980665 13.6035118,21.9951662 C13.9229122,21.9603629 14.2027409,21.7612107 14.3468951,21.4663494 L20,9.86524875 L18.3144325,9 L13.3208565,19.2495724 Z" id="Path"></path>
                <path d="M32,7 C34.206,7 36,8.794 36,11 C36,11.552 36.448,12 37,12 C37.552,12 38,11.552 38,11 C38,8.794 39.794,7 42,7 C42.552,7 43,6.552 43,6 C43,5.448 42.552,5 42,5 C39.794,5 38,3.206 38,1 C38,0.448 37.552,0 37,0 C36.448,0 36,0.448 36,1 C36,3.206 34.206,5 32,5 C31.448,5 31,5.448 31,6 C31,6.552 31.448,7 32,7 Z M37.5,5 C37.8947836,5.59395376 38.4060462,6.10521636 39,6.5 C38.4060462,6.89478364 37.8947836,7.40604624 37.5,8 C37.1052164,7.40604624 36.5939538,6.89478364 36,6.5 C36.5939538,6.10521636 37.1052164,5.59395376 37.5,5 Z" id="Shape"></path>
                <path d="M49,7 C51.206,7 53,8.794 53,11 C53,11.552 53.448,12 54,12 C54.552,12 55,11.552 55,11 C55,8.794 56.794,7 59,7 C59.552,7 60,6.552 60,6 C60,5.448 59.552,5 59,5 C56.794,5 55,3.206 55,1 C55,0.448 54.552,0 54,0 C53.448,0 53,0.448 53,1 C53,3.206 51.206,5 49,5 C48.448,5 48,5.448 48,6 C48,6.552 48.448,7 49,7 Z M54.5,5 C54.8947836,5.59395376 55.4060462,6.10521636 56,6.5 C55.4060462,6.89478364 54.8947836,7.40604624 54.5,8 C54.1052164,7.40604624 53.5939538,6.89478364 53,6.5 C53.5939538,6.10521636 54.1052164,5.59395376 54.5,5 Z" id="Shape"></path>
                <path d="M43.9166667,16.4166667 C45.9388333,16.4166667 47.5833333,18.0611667 47.5833333,20.0833333 C47.5833333,20.5893333 47.994,21 48.5,21 C49.006,21 49.4166667,20.5893333 49.4166667,20.0833333 C49.4166667,18.0611667 51.0611667,16.4166667 53.0833333,16.4166667 C53.5893333,16.4166667 54,16.006 54,15.5 C54,14.994 53.5893333,14.5833333 53.0833333,14.5833333 C51.0611667,14.5833333 49.4166667,12.9388333 49.4166667,10.9166667 C49.4166667,10.4106667 49.006,10 48.5,10 C47.994,10 47.5833333,10.4106667 47.5833333,10.9166667 C47.5833333,12.9388333 45.9388333,14.5833333 43.9166667,14.5833333 C43.4106667,14.5833333 43,14.994 43,15.5 C43,16.006 43.4106667,16.4166667 43.9166667,16.4166667 Z M48.5,14 C48.8947836,14.5939538 49.4060462,15.1043272 50,15.5 C49.4060462,15.8947836 48.8956728,16.4060462 48.5,17 C48.1052164,16.4060462 47.5939538,15.8956728 47,15.5 C47.5939538,15.1052164 48.1052164,14.5939538 48.5,14 Z" id="Shape"></path>
            </g>
        </g>
    </g>
</svg>