<?xml version="1.0" encoding="UTF-8"?>
<svg width="148px" height="148px" viewBox="0 0 148 148" version="1.1" xmlns="http://www.w3.org/2000/svg" xmlns:xlink="http://www.w3.org/1999/xlink">
    <!-- Generator: Sketch 58 (84663) - https://sketch.com -->
    <title>music-player-play-button</title>
    <desc>Created with Sketch.</desc>
    <defs>
        <linearGradient x1="34.755411%" y1="100%" x2="67.0415892%" y2="1.42789274%" id="linearGradient-1">
            <stop stop-color="#FF9618" offset="0%"></stop>
            <stop stop-color="#FA4D0D" offset="100%"></stop>
        </linearGradient>
        <linearGradient x1="13.6824324%" y1="100%" x2="90.5986064%" y2="1.42789274%" id="linearGradient-2">
            <stop stop-color="#FF9618" offset="0%"></stop>
            <stop stop-color="#FA4D0D" offset="100%"></stop>
        </linearGradient>
    </defs>
    <g id="Page-1" stroke="none" stroke-width="1" fill="none" fill-rule="evenodd">
        <g id="music-player-play-button" fill-rule="nonzero">
            <path d="M63.3385861,110 C62.7148638,110 62.086294,109.864039 61.498767,109.590175 C59.974364,108.874761 59,107.339696 59,105.653132 L59,43.3473766 C59,41.6608126 59.9740408,40.1257479 61.498767,39.410334 C63.0222005,38.6949201 64.8258243,38.9279961 66.1175433,40.007915 L103.438109,71.1607927 C104.427985,71.9872415 105,73.2095958 105,74.5002543 C105,75.7905891 104.428308,77.0132671 103.438109,77.8397159 L66.1175433,108.992594 C65.3231862,109.655889 64.3355721,110 63.3385861,110 Z M67.6794343,52.6276873 L67.6794343,96.3728213 L93.8819087,74.5002543 L67.6794343,52.6276873 Z" id="Shape" fill="url(#linearGradient-1)"></path>
            <path d="M73.8702717,148 C61.4708446,148.002269 48.9990939,144.90821 37.7033299,138.5482 C35.6075698,137.368631 34.8645512,134.712411 36.0454027,132.616624 C37.2236596,130.520837 39.8798458,129.776835 41.9769031,130.958675 C67.3858046,145.262373 99.5493323,140.839231 120.190396,120.191091 C145.66027,94.7205652 145.66027,53.2796363 120.190396,27.8091105 C94.7201978,2.33436848 53.2762346,2.33663875 27.8073338,27.8091105 C2.33843298,53.2796363 2.33843298,94.7205652 27.8073338,120.191091 C29.5083956,121.892175 29.5083956,124.650557 27.8073338,126.351641 C26.1085422,128.052725 23.3501951,128.052725 21.6491333,126.351641 C-7.21637775,97.4834883 -7.21637775,50.5167131 21.6491333,21.6485605 C50.5159416,-7.21505167 97.4808152,-7.21732194 126.350867,21.6485605 C155.216378,50.5167131 155.216378,97.4834883 126.350867,126.351641 C112.131028,140.571339 93.0865947,148 73.8702717,148 Z" id="Path" fill="url(#linearGradient-2)"></path>
        </g>
    </g>
</svg>