<?xml version="1.0" encoding="UTF-8"?>
<svg width="239px" height="71px" viewBox="0 0 239 71" version="1.1" xmlns="http://www.w3.org/2000/svg" xmlns:xlink="http://www.w3.org/1999/xlink">
    <!-- Generator: Sketch 58 (84663) - https://sketch.com -->
    <title>Group 3 Copy 5</title>
    <desc>Created with Sketch.</desc>
    <defs>
        <linearGradient x1="100%" y1="0%" x2="0%" y2="100%" id="linearGradient-1">
            <stop stop-color="#FA5E1D" offset="0%"></stop>
            <stop stop-color="#F67F2A" offset="100%"></stop>
        </linearGradient>
    </defs>
    <g id="Page-1" stroke="none" stroke-width="1" fill="none" fill-rule="evenodd">
        <g id="Group-3-Copy-5">
            <path d="M88.52,15.225 L104.305,15.225 C108.595021,15.225 112.289151,15.9949923 115.3875,17.535 C118.485849,19.0750077 120.859992,21.3024854 122.51,24.2175 C124.160008,27.1325146 124.985,30.5883133 124.985,34.585 C124.985,38.6183535 124.169175,42.0924854 122.5375,45.0075 C120.905825,47.9225146 118.540849,50.1499923 115.4425,51.69 C112.344151,53.2300077 108.631688,54 104.305,54 L88.52,54 L88.52,15.225 Z M103.59,45.86 C107.403352,45.86 110.244991,44.9250093 112.115,43.055 C113.985009,41.1849906 114.92,38.3616855 114.92,34.585 C114.92,30.8083144 113.985009,27.9941759 112.115,26.1425 C110.244991,24.2908241 107.403352,23.365 103.59,23.365 L98.64,23.365 L98.64,45.86 L103.59,45.86 Z M155.148251,34.255 L149.813251,34.805 C147.686574,35.0250011 146.201589,35.5933287 145.358251,36.51 C144.514913,37.4266712 144.093251,38.7283249 144.093251,40.415 L144.093251,54 L134.303251,54 L134.303251,26.94 L143.598251,26.94 L143.598251,31.615 C144.221587,29.9649917 145.248244,28.709171 146.678251,27.8475 C148.108258,26.985829 149.849907,26.5000005 151.903251,26.39 L154.598251,26.17 L155.148251,34.255 Z M161.276502,54 L161.276502,26.94 L171.066502,26.94 L171.066502,54 L161.276502,54 Z M161.056502,13.41 L171.286502,13.41 L171.286502,22.265 L161.056502,22.265 L161.056502,13.41 Z M226.058004,26.28 C229.94469,26.28 233.024659,27.5174876 235.298004,29.9925 C237.571349,32.4675124 238.708004,35.8499785 238.708004,40.14 L238.708004,42.34 L221.988004,42.34 C222.281339,44.1000088 222.922999,45.3649961 223.913004,46.135 C224.903009,46.9050038 226.314661,47.29 228.148004,47.29 C229.468011,47.29 230.806331,47.0700022 232.163004,46.63 C233.519677,46.1899978 234.729665,45.5850038 235.793004,44.815 L238.268004,51.25 C236.911331,52.2400049 235.27968,53.0191638 233.373004,53.5875 C231.466328,54.1558362 229.55968,54.44 227.653004,54.44 C224.536322,54.44 221.841349,53.8716723 219.568004,52.735 C217.294659,51.5983276 215.543843,49.9666773 214.315504,47.84 C213.087165,45.7133227 212.473004,43.2200143 212.473004,40.36 C212.473004,37.6466531 213.050498,35.2175107 214.205504,33.0725 C215.36051,30.9274893 216.973827,29.2591726 219.045504,28.0675 C221.117181,26.8758274 223.454658,26.28 226.058004,26.28 Z M186.929753,26.995 L192.869753,42.23 L199.139753,26.995 L208.709753,26.995 L196.664753,54 L188.579753,54 L176.699753,26.995 L186.929753,26.995 Z M226.333004,32.88 C223.729658,32.88 222.244672,34.4933172 221.878004,37.72 L221.878004,37.72 L230.513004,37.72 C230.293003,34.4933172 228.899683,32.88 226.333004,32.88 Z" id="Drive" fill="#FA601E" fill-rule="nonzero"></path>
            <path d="M92.01,70.09 C91.2966631,70.09 90.6750026,69.9400015 90.145,69.64 C89.6149973,69.3399985 89.2083348,68.9166694 88.925,68.37 C88.6416653,67.8233306 88.5,67.1900036 88.5,66.47 C88.5,65.7499964 88.6416653,65.1166694 88.925,64.57 C89.2083348,64.0233306 89.6149973,63.6016682 90.145,63.305 C90.6750026,63.0083318 91.2966631,62.86 92.01,62.86 C92.476669,62.86 92.9233312,62.9316659 93.35,63.075 C93.7766688,63.218334 94.1266653,63.4166654 94.4,63.67 L93.9,64.78 C93.5933318,64.5466655 93.2883348,64.3766672 92.985,64.27 C92.6816652,64.1633328 92.3666683,64.11 92.04,64.11 C91.4133302,64.11 90.9316683,64.309998 90.595,64.71 C90.2583317,65.110002 90.09,65.6966628 90.09,66.47 C90.09,67.2433372 90.2583317,67.8316646 90.595,68.235 C90.9316683,68.6383354 91.4133302,68.84 92.04,68.84 C92.3666683,68.84 92.6816652,68.7866672 92.985,68.68 C93.2883348,68.5733328 93.5933318,68.4033345 93.9,68.17 L94.4,69.28 C94.1266653,69.5333346 93.7766688,69.731666 93.35,69.875 C92.9233312,70.018334 92.476669,70.09 92.01,70.09 Z M101.846698,70 L101.176698,68.44 L97.896698,68.44 L97.226698,70 L95.656698,70 L98.896698,62.95 L100.146698,62.95 L103.386698,70 L101.846698,70 Z M98.406698,67.26 L100.666698,67.26 L99.536698,64.62 L98.406698,67.26 Z M111.183396,70 L109.483396,70 L108.263396,67.75 C108.163396,67.5766658 108.043397,67.451667 107.903396,67.375 C107.763395,67.298333 107.58673,67.26 107.373396,67.26 L106.603396,67.26 L106.603396,70 L105.063396,70 L105.063396,62.95 L108.303396,62.95 C109.130067,62.95 109.755061,63.1316648 110.178396,63.495 C110.601731,63.8583352 110.813396,64.3833299 110.813396,65.07 C110.813396,65.603336 110.665064,66.0499982 110.368396,66.41 C110.071728,66.7700018 109.653399,67.0066661 109.113396,67.12 C109.480064,67.2133338 109.790061,67.4766645 110.043396,67.91 L111.183396,70 Z M108.073396,66.08 C108.520065,66.08 108.843395,66.0016674 109.043396,65.845 C109.243397,65.6883325 109.343396,65.443335 109.343396,65.11 C109.343396,64.7699983 109.243397,64.5233341 109.043396,64.37 C108.843395,64.2166659 108.520065,64.14 108.073396,64.14 L106.583396,64.14 L106.583396,66.08 L108.073396,66.08 Z M115.580094,70.09 C115.046758,70.09 114.53343,70.018334 114.040094,69.875 C113.546758,69.731666 113.136762,69.5333346 112.810094,69.28 L113.310094,68.17 C113.990097,68.6433357 114.753423,68.88 115.600094,68.88 C116.040096,68.88 116.378426,68.808334 116.615094,68.665 C116.851762,68.5216659 116.970094,68.3233346 116.970094,68.07 C116.970094,67.8433322 116.861762,67.6666673 116.645094,67.54 C116.45551,67.4291661 116.137049,67.3208857 115.689704,67.2151564 L115.490094,67.17 C114.870091,67.0433327 114.375096,66.8900009 114.005094,66.71 C113.635092,66.5299991 113.365095,66.3083347 113.195094,66.045 C113.025093,65.7816653 112.940094,65.4566686 112.940094,65.07 C112.940094,64.6433312 113.058426,64.263335 113.295094,63.93 C113.531762,63.596665 113.863425,63.335001 114.290094,63.145 C114.716763,62.954999 115.210091,62.86 115.770094,62.86 C116.270096,62.86 116.751758,62.9333326 117.215094,63.08 C117.67843,63.2266674 118.046759,63.4233321 118.320094,63.67 L117.820094,64.78 C117.173424,64.3066643 116.493431,64.07 115.780094,64.07 C115.373425,64.07 115.053428,64.1483325 114.820094,64.305 C114.586759,64.4616674 114.470094,64.6766653 114.470094,64.95 C114.470094,65.1100008 114.515094,65.2416662 114.605094,65.345 C114.695094,65.4483338 114.845093,65.5399996 115.055094,65.62 C115.223095,65.6840003 115.447626,65.7501332 115.728693,65.8183999 L115.950094,65.87 C116.856765,66.070001 117.508425,66.3266651 117.905094,66.64 C118.301763,66.9533349 118.500094,67.3866639 118.500094,67.94 C118.500094,68.60667 118.24343,69.1316647 117.730094,69.515 C117.216758,69.8983353 116.500099,70.09 115.580094,70.09 Z M125.486792,62.95 L127.016792,62.95 L127.016792,70 L125.486792,70 L125.486792,67.04 L122.236792,67.04 L122.236792,70 L120.706792,70 L120.706792,62.95 L122.236792,62.95 L122.236792,65.8 L125.486792,65.8 L125.486792,62.95 Z M134.88349,70 L134.21349,68.44 L130.93349,68.44 L130.26349,70 L128.69349,70 L131.93349,62.95 L133.18349,62.95 L136.42349,70 L134.88349,70 Z M131.44349,67.26 L133.70349,67.26 L132.57349,64.62 L131.44349,67.26 Z M144.220188,70 L142.520188,70 L141.300188,67.75 C141.200187,67.5766658 141.080189,67.451667 140.940188,67.375 C140.800187,67.298333 140.623522,67.26 140.410188,67.26 L139.640188,67.26 L139.640188,70 L138.100188,70 L138.100188,62.95 L141.340188,62.95 C142.166859,62.95 142.791853,63.1316648 143.215188,63.495 C143.638523,63.8583352 143.850188,64.3833299 143.850188,65.07 C143.850188,65.603336 143.701856,66.0499982 143.405188,66.41 C143.10852,66.7700018 142.690191,67.0066661 142.150188,67.12 C142.516856,67.2133338 142.826853,67.4766645 143.080188,67.91 L144.220188,70 Z M141.110188,66.08 C141.556857,66.08 141.880187,66.0016674 142.080188,65.845 C142.280189,65.6883325 142.380188,65.443335 142.380188,65.11 C142.380188,64.7699983 142.280189,64.5233341 142.080188,64.37 C141.880187,64.2166659 141.556857,64.14 141.110188,64.14 L139.620188,64.14 L139.620188,66.08 L141.110188,66.08 Z M146.196886,70 L146.196886,62.95 L147.756886,62.95 L147.756886,70 L146.196886,70 Z M154.903584,62.95 L156.363584,62.95 L156.363584,70 L155.203584,70 L151.693584,65.51 L151.693584,70 L150.243584,70 L150.243584,62.95 L151.393584,62.95 L154.903584,67.42 L154.903584,62.95 Z M164.910282,66.11 L164.910282,69.56 C164.57028,69.7266675 164.170284,69.8566662 163.710282,69.95 C163.25028,70.0433338 162.776951,70.09 162.290282,70.09 C161.543612,70.09 160.896951,69.9450015 160.350282,69.655 C159.803613,69.3649985 159.383617,68.948336 159.090282,68.405 C158.796947,67.861664 158.650282,67.2166704 158.650282,66.47 C158.650282,65.736663 158.795281,65.0983361 159.085282,64.555 C159.375283,64.0116639 159.790279,63.5933348 160.330282,63.3 C160.870285,63.0066652 161.500278,62.86 162.220282,62.86 C162.726951,62.86 163.198613,62.9299993 163.635282,63.07 C164.071951,63.2100007 164.433614,63.4033321 164.720282,63.65 L164.230282,64.76 C163.903614,64.5266655 163.585284,64.3583338 163.275282,64.255 C162.96528,64.1516661 162.630284,64.1 162.270282,64.1 C160.910275,64.1 160.230282,64.8899921 160.230282,66.47 C160.230282,67.2833374 160.406947,67.889998 160.760282,68.29 C161.113617,68.690002 161.646945,68.89 162.360282,68.89 C162.746951,68.89 163.13028,68.8400005 163.510282,68.74 L163.510282,67.19 L162.130282,67.19 L162.130282,66.11 L164.910282,66.11 Z M171.193678,70 L171.193678,62.95 L172.753678,62.95 L172.753678,70 L171.193678,70 Z M179.900376,62.95 L181.360376,62.95 L181.360376,70 L180.200376,70 L176.690376,65.51 L176.690376,70 L175.240376,70 L175.240376,62.95 L176.390376,62.95 L179.900376,67.42 L179.900376,62.95 Z M189.353772,70 L189.353772,64.22 L187.143772,64.22 L187.143772,62.95 L193.123772,62.95 L193.123772,64.22 L190.913772,64.22 L190.913772,70 L189.353772,70 Z M199.81047,62.95 L201.34047,62.95 L201.34047,70 L199.81047,70 L199.81047,67.04 L196.56047,67.04 L196.56047,70 L195.03047,70 L195.03047,62.95 L196.56047,62.95 L196.56047,65.8 L199.81047,65.8 L199.81047,62.95 Z M203.827168,70 L203.827168,62.95 L208.687168,62.95 L208.687168,64.16 L205.347168,64.16 L205.347168,65.81 L208.487168,65.81 L208.487168,67.02 L205.347168,67.02 L205.347168,68.79 L208.687168,68.79 L208.687168,70 L203.827168,70 Z M217.710564,70.09 C216.723892,70.09 215.972233,69.8350025 215.455564,69.325 C214.938895,68.8149974 214.680564,68.0700049 214.680564,67.09 L214.680564,62.95 L216.210564,62.95 L216.210564,67.16 C216.210564,67.7200028 216.338896,68.1466652 216.595564,68.44 C216.852232,68.7333348 217.223895,68.88 217.710564,68.88 C218.197233,68.88 218.570563,68.7316682 218.830564,68.435 C219.090565,68.1383319 219.220564,67.7133361 219.220564,67.16 L219.220564,62.95 L220.750564,62.95 L220.750564,67.09 C220.750564,68.0633382 220.490567,68.8066641 219.970564,69.32 C219.450561,69.8333359 218.697236,70.09 217.710564,70.09 Z M225.857262,62.86 C226.357265,62.86 226.838926,62.9333326 227.302262,63.08 C227.765598,63.2266674 228.133927,63.4233321 228.407262,63.67 L227.907262,64.78 C227.260592,64.3066643 226.580599,64.07 225.867262,64.07 C225.460593,64.07 225.140597,64.1483325 224.907262,64.305 C224.673928,64.4616674 224.557262,64.6766653 224.557262,64.95 C224.557262,65.1100008 224.602262,65.2416662 224.692262,65.345 C224.782262,65.4483338 224.932261,65.5399996 225.142262,65.62 C225.310263,65.6840003 225.534794,65.7501332 225.815861,65.8183999 L226.037262,65.87 C226.943933,66.070001 227.595593,66.3266651 227.992262,66.64 C228.388931,66.9533349 228.587262,67.3866639 228.587262,67.94 C228.587262,68.60667 228.330598,69.1316647 227.817262,69.515 C227.303926,69.8983353 226.587267,70.09 225.667262,70.09 C225.133926,70.09 224.620598,70.018334 224.127262,69.875 C223.633926,69.731666 223.22393,69.5333346 222.897262,69.28 L223.397262,68.17 C224.077265,68.6433357 224.840591,68.88 225.687262,68.88 C226.127264,68.88 226.465594,68.808334 226.702262,68.665 C226.93893,68.5216659 227.057262,68.3233346 227.057262,68.07 C227.057262,67.8433322 226.94893,67.6666673 226.732262,67.54 C226.542678,67.4291661 226.224217,67.3208857 225.776872,67.2151564 L225.577262,67.17 C224.957259,67.0433327 224.462264,66.8900009 224.092262,66.71 C223.72226,66.5299991 223.452263,66.3083347 223.282262,66.045 C223.112261,65.7816653 223.027262,65.4566686 223.027262,65.07 C223.027262,64.6433312 223.145594,64.263335 223.382262,63.93 C223.61893,63.596665 223.950593,63.335001 224.377262,63.145 C224.803931,62.954999 225.297259,62.86 225.857262,62.86 Z M234.37396,62.95 L237.61396,70 L236.07396,70 L235.40396,68.44 L232.12396,68.44 L231.45396,70 L229.88396,70 L233.12396,62.95 L234.37396,62.95 Z M233.76396,64.62 L232.63396,67.26 L234.89396,67.26 L233.76396,64.62 Z" id="CARSHARINGINTHEUSA" fill="#333235" fill-rule="nonzero"></path>
            <path d="M62,0 C66.418278,-8.11624501e-16 70,3.581722 70,8 L70,62 C70,66.418278 66.418278,70 62,70 L8,70 C3.581722,70 5.41083001e-16,66.418278 0,62 L0,8 C-5.41083001e-16,3.581722 3.581722,8.11624501e-16 8,0 L62,0 Z M28.345,14.93 L18.625,14.93 L18.625,36.962 C18.625,42.362027 20.0559857,46.465986 22.918,49.274 C25.7800143,52.082014 29.9649725,53.486 35.473,53.486 C40.9450274,53.486 45.1299855,52.0730141 48.028,49.247 C50.9260145,46.4209859 52.375,42.3260268 52.375,36.962 L52.375,36.962 L52.375,14.93 L42.601,14.93 L42.601,37.34 C42.601,40.0760137 41.9890061,42.1819926 40.765,43.658 C39.5409939,45.1340074 37.7770115,45.872 35.473,45.872 C33.1689885,45.872 31.4050061,45.1340074 30.181,43.658 C28.9569939,42.1819926 28.345,40.0760137 28.345,37.34 L28.345,37.34 L28.345,14.93 Z" id="Combined-Shape" fill="url(#linearGradient-1)"></path>
        </g>
    </g>
</svg>