<svg viewBox="0 0 32 32" xmlns="http://www.w3.org/2000/svg">
  <path d="M5,0 L27,0 C29.7614237,0 32,2.23857625 32,5 L32,27 C32,29.7614237 29.7614237,32 27,32 L5,32 C2.23857625,32 0,29.7614237 0,27 L0,5 C0,2.23857625 2.23857625,0 5,0 Z
           M12.704545,8 C10.122159,8 8,10.1193185 8,12.704545 L8,19.295455 C8,21.877841 10.119319,24 12.704545,24 L19.295455,24 C21.877841,24 24,21.880682 24,19.295455 L24,12.704545 C24,10.122159 21.880682,8 19.295455,8 L12.704545,8 Z
           M16,11.636364 C13.599432,11.636364 11.636364,13.599432 11.636364,16 C11.636364,18.400568 13.599432,20.363636 16,20.363636 C18.400568,20.363636 20.363636,18.400568 20.363636,16 C20.363636,13.599432 18.400568,11.636364 16,11.636364 Z
           M16,13.090909 C17.616477,13.090909 18.909091,14.383523 18.909091,16 C18.909091,17.616477 17.616477,18.909091 16,18.909091 C14.383523,18.909091 13.090909,17.616477 13.090909,16 C13.090909,14.383523 14.383523,13.090909 16,13.090909 Z
           M20.295455,11.045455 C19.928977,11.045455 19.636364,11.338068 19.636364,11.704545 C19.636364,12.071023 19.928977,12.363636 20.295455,12.363636 C20.661932,12.363636 20.954545,12.071023 20.954545,11.704545 C20.954545,11.338068 20.661932,11.045455 20.295455,11.045455 Z"
        fill="#6748cd"/>
</svg>
