<svg viewBox="0 0 32 32" xmlns="http://www.w3.org/2000/svg">
  <path d="M5.812971,0 L27.812971,0 C30.574395,0 32.812971,2.238576 32.812971,5 L32.812971,27 C32.812971,29.761424 30.574395,32 27.812971,32 L5.812971,32 C3.051547,32 0.812971,29.761424 0.812971,27 L0.812971,5 C0.812971,2.238576 3.051547,0 5.812971,0 Z
           M13.981398,8 C10.783373,8 8.187029,10.552157 8.187029,13.700461 L8.187029,16.554176 C8.187029,19.035695 9.799241,21.147869 12.049835,21.929956 L12.049835,24 L14.00844,22.254321 L17.201315,22.254321 C20.399341,22.254321 22.995684,19.702481 22.995684,16.554176 L22.995684,13.700461 C22.995684,10.552791 20.401272,8 17.201315,8 L13.981398,8 Z
           M17.188438,19.043931 C17.188438,19.043931 14.786538,17.81996 13.498507,16.529152 C12.21112,15.238344 11.406302,13.813546 11.406302,13.813546 C11.141034,13.096078 11.102081,12.457168 11.63809,11.999129 L12.609666,11.167627 L14.157814,12.919958 C14.39089,13.184138 14.364814,13.582626 14.095039,13.813546 L13.699712,14.151848 C14.3558,16.248817 15.610672,16.559245 16.572591,16.87474 L16.800838,16.529152 C16.995604,16.233929 17.392862,16.153155 17.69161,16.343846 L19.670176,17.608046 L18.969018,18.670468 C18.722743,19.043931 18.309067,19.247926 17.88702,19.247926 C17.647184,19.247926 17.404451,19.18204 17.188438,19.043931 Z
           M17.456282,14.65341 C17.315599,14.65341 17.186506,14.562183 17.146587,14.42249 C17.011378,13.950197 16.62925,13.573566 16.149579,13.439259 C15.978635,13.391428 15.879482,13.216258 15.928093,13.048057 C15.976704,12.879222 16.154729,12.781343 16.325995,12.829807 C17.018782,13.023666 17.570888,13.568181 17.766298,14.250805 C17.814587,14.419323 17.714789,14.594176 17.543846,14.64169 C17.51455,14.649609 17.485255,14.65341 17.456282,14.65341 Z
           M18.775894,14.721482 C18.635211,14.721482 18.506441,14.630255 18.4662,14.490563 C18.146526,13.375875 17.244807,12.486088 16.112589,12.169326 C15.941646,12.121494 15.842492,11.946325 15.891103,11.778124 C15.939392,11.610239 16.11774,11.511409 16.288683,11.560191 C17.634339,11.936822 18.706035,12.993859 19.08591,14.318877 C19.134199,14.487078 19.034723,14.662248 18.863458,14.709762 C18.834163,14.717681 18.804867,14.721482 18.775894,14.721482 Z
           M20.271278,14.858197 C20.130596,14.858197 20.001503,14.76697 19.961584,14.627277 C19.420102,12.738738 17.892235,11.231581 15.973549,10.694352 C15.802927,10.646521 15.703774,10.471351 15.752063,10.30315 C15.800674,10.134632 15.9787,10.036436 16.149965,10.085217 C18.281767,10.681998 19.979612,12.356722 20.581294,14.455592 C20.629583,14.623793 20.529786,14.798963 20.358842,14.846477 C20.329547,14.854396 20.300252,14.858197 20.271278,14.858197 Z" 
        fill="#6748cd"/>
</svg>
