<?xml version="1.0" encoding="UTF-8"?>
<svg width="144px" height="144px" viewBox="0 0 144 144" version="1.1" xmlns="http://www.w3.org/2000/svg" xmlns:xlink="http://www.w3.org/1999/xlink">
    <!-- Generator: Sketch 58 (84663) - https://sketch.com -->
    <title>icon4 copy</title>
    <desc>Created with Sketch.</desc>
    <defs>
        <rect id="path-1" x="0" y="0" width="100" height="100" rx="12"></rect>
        <filter x="-32.5%" y="-32.5%" width="165.0%" height="165.0%" filterUnits="objectBoundingBox" id="filter-2">
            <feMorphology radius="5" operator="dilate" in="SourceAlpha" result="shadowSpreadOuter1"></feMorphology>
            <feOffset dx="0" dy="0" in="shadowSpreadOuter1" result="shadowOffsetOuter1"></feOffset>
            <feGaussianBlur stdDeviation="7.5" in="shadowOffsetOuter1" result="shadowBlurOuter1"></feGaussianBlur>
            <feComposite in="shadowBlurOuter1" in2="SourceAlpha" operator="out" result="shadowBlurOuter1"></feComposite>
            <feColorMatrix values="0 0 0 0 0.580392157   0 0 0 0 0.607843137   0 0 0 0 0.674509804  0 0 0 0.343941215 0" type="matrix" in="shadowBlurOuter1"></feColorMatrix>
        </filter>
        <linearGradient x1="86.7346939%" y1="0%" x2="14.1243364%" y2="98.8307644%" id="linearGradient-3">
            <stop stop-color="#FA5E1D" offset="0%"></stop>
            <stop stop-color="#F69A2A" offset="100%"></stop>
        </linearGradient>
        <linearGradient x1="100%" y1="0%" x2="0%" y2="100%" id="linearGradient-4">
            <stop stop-color="#FA5E1D" offset="0%"></stop>
            <stop stop-color="#F69A2A" offset="98.8307644%"></stop>
        </linearGradient>
        <linearGradient x1="100%" y1="19.7530864%" x2="0%" y2="80.2469136%" id="linearGradient-5">
            <stop stop-color="#FA5E1D" offset="0%"></stop>
            <stop stop-color="#F69A2A" offset="98.8307644%"></stop>
        </linearGradient>
    </defs>
    <g id="Page-1" stroke="none" stroke-width="1" fill="none" fill-rule="evenodd">
        <g id="icon4-copy" transform="translate(22.000000, 22.000000)">
            <g id="Rectangle">
                <use fill="black" fill-opacity="1" filter="url(#filter-2)" xlink:href="#path-1"></use>
                <use stroke="#FFFFFF" stroke-width="5" fill="#FFFFFF" fill-rule="evenodd" xlink:href="#path-1"></use>
            </g>
            <g id="secure-shield" transform="translate(20.000000, 15.000000)">
                <path d="M58.9111346,12.0874461 C49.2310335,9.44850721 39.4940431,5.33943521 30.7527517,0.20456493 C30.2884311,-0.0681883101 29.7122559,-0.0681883101 29.2480728,0.20456493 C20.2546274,5.48695438 11.0437937,9.37372223 1.08886538,12.0874461 C0.445769722,12.2625824 0,12.8441825 0,13.507677 L0,28.5529918 C0,44.0463329 7.18384566,54.3018547 13.2105314,60.1767818 C19.698652,66.5020593 27.2564,70 30.0004122,70 C32.7441496,70 40.3018977,66.5020593 46.7900183,60.1767818 C52.8165666,54.3019915 60,44.0464696 60,28.5529918 L60,13.5075403 C60,12.8441825 59.5542303,12.2625824 58.9111346,12.0874461 Z M57.040111,28.5528551 C57.040111,43.0235424 50.3396864,52.593148 44.7183708,58.0730955 C38.3381199,64.2930999 31.5164965,67.0548119 30.0004122,67.0548119 C28.484328,67.0548119 21.6622923,64.2930999 15.281904,58.0730955 C9.66072582,52.5930112 2.96002638,43.0235424 2.96002638,28.5528551 L2.96002638,14.62535 C12.4797658,11.9360988 21.3454166,8.18304155 30.0006871,3.17873736 C38.439806,8.05028796 47.7477911,11.9899658 57.040111,14.6248032 L57.040111,28.5528551 Z" id="Shape" fill="url(#linearGradient-3)"></path>
                <path d="M16.8977153,14.8924713 C16.6015337,14.1687772 15.7519817,13.8132714 14.9998436,14.0984344 C12.3858375,15.0896403 9.70281298,16.0020048 7.02535883,16.8102933 C6.41519764,16.994649 6,17.5385636 6,18.153867 L6,23.5918364 C6,24.3695297 6.65526774,25 7.46324561,25 C8.27122347,25 8.92649121,24.3695297 8.92649121,23.5918364 L8.92649121,19.1829901 C11.328415,18.4351075 13.7277574,17.6078604 16.0726186,16.7186384 C16.8246209,16.433737 17.1940327,15.6161653 16.8977153,14.8924713 Z" id="Path" fill="url(#linearGradient-4)"></path>
                <path d="M19.4896133,15 C19.6890175,15 19.8914576,14.9595967 20.085618,14.874347 L20.1129412,14.8624065 C20.8648813,14.5308493 21.2035234,13.6501678 20.873989,12.8938896 C20.5441786,12.1373338 19.6639022,11.7950857 18.9127901,12.1263652 L18.8887788,12.1367784 C18.1364246,12.4673638 17.7966785,13.3473511 18.125247,14.1040457 C18.3690859,14.6658048 18.91624,15 19.4896133,15 Z" id="Path" fill="url(#linearGradient-4)"></path>
                <path d="M47.3179491,47.2330515 C46.622449,46.8010456 45.6898055,46.986836 45.2346631,47.6480587 C43.9944455,49.4520452 42.5394433,51.1795377 40.909483,52.7820631 C39.5690699,54.0997276 38.116583,55.3278834 36.592408,56.4321346 C35.9315642,56.9110197 35.8043982,57.8084977 36.3081711,58.4367854 C36.6045656,58.805843 37.0527209,59 37.5060466,59 C37.8243807,59 38.1450905,58.9045151 38.417589,58.7069053 C40.0616633,57.5155358 41.6281803,56.1910984 43.0734006,54.7703793 C44.8356973,53.038106 46.4105989,51.1682495 47.7546454,49.2127355 C48.2095083,48.55138 48.0137286,47.6650574 47.3179491,47.2330515 Z" id="Path" fill="url(#linearGradient-4)"></path>
                <path d="M33.80975,59.2020243 L33.7262695,59.2518123 C33.0310039,59.6595541 32.7933952,60.560662 33.1959387,61.2646697 C33.4656969,61.7365613 33.9540173,62 34.4563862,62 C34.7035857,62 34.9545676,61.9361236 35.1838012,61.8013952 L35.2801145,61.7440843 C35.973489,61.332923 36.2063698,60.4305841 35.8003142,59.7284913 C35.3939884,59.0266721 34.5027192,58.7912734 33.80975,59.2020243 Z" id="Path" fill="url(#linearGradient-4)"></path>
                <path d="M20.0777994,31.9653941 C19.1840317,31.0522096 17.9953597,30.5496405 16.7311372,30.5496405 C15.4669147,30.5496405 14.2781076,31.0523477 13.3839344,31.9653941 C11.5386885,33.8508565 11.5386885,36.9187369 13.3839344,38.8040612 L21.9791339,47.5843845 C22.8730368,48.4972929 24.0617087,49 25.3260663,49 C26.590424,49 27.7790959,48.4972929 28.673134,47.5841083 L46.6162007,29.2538684 C48.4613115,27.3679918 48.4613115,24.3005256 46.6159304,22.4157536 C45.7220275,21.5025691 44.5333556,21 43.2688628,21 C42.0045051,21 40.8158332,21.5027071 39.9217951,22.4157536 L25.3259312,37.3264529 L20.0777994,31.9653941 Z M41.9804478,24.5188118 C42.3244126,24.1674277 42.7821763,23.9739938 43.2689979,23.9739938 C43.7560899,23.9739938 44.2134481,24.1674277 44.5576832,24.5188118 C45.267913,25.2443614 45.267913,26.4253987 44.5574129,27.1512244 L26.6146164,45.4811882 C26.2706517,45.8325723 25.812888,46.0260062 25.3260663,46.0260062 C24.8392447,46.0260062 24.381481,45.8325723 24.0373811,45.4811882 L15.442452,36.701141 C14.7319519,35.9753153 14.7319519,34.7942781 15.4421817,34.0687285 C15.7862816,33.7173444 16.2440453,33.5236344 16.7310021,33.5236344 C17.2179588,33.5236344 17.6754522,33.7170682 18.019417,34.0684524 L24.2966048,40.4811783 C24.5697493,40.7599385 24.9397987,40.9166461 25.3259312,40.9166461 C25.7120637,40.9166461 26.082113,40.7600765 26.3549872,40.4811783 L41.9804478,24.5188118 Z" id="Shape" fill="url(#linearGradient-5)"></path>
            </g>
        </g>
    </g>
</svg>