<?xml version="1.0" encoding="UTF-8"?>
<svg width="144px" height="144px" viewBox="0 0 144 144" version="1.1" xmlns="http://www.w3.org/2000/svg" xmlns:xlink="http://www.w3.org/1999/xlink">
    <!-- Generator: Sketch 58 (84663) - https://sketch.com -->
    <title>icon4 copy 2</title>
    <desc>Created with Sketch.</desc>
    <defs>
        <rect id="path-1" x="0" y="0" width="100" height="100" rx="12"></rect>
        <filter x="-32.5%" y="-32.5%" width="165.0%" height="165.0%" filterUnits="objectBoundingBox" id="filter-2">
            <feMorphology radius="5" operator="dilate" in="SourceAlpha" result="shadowSpreadOuter1"></feMorphology>
            <feOffset dx="0" dy="0" in="shadowSpreadOuter1" result="shadowOffsetOuter1"></feOffset>
            <feGaussianBlur stdDeviation="7.5" in="shadowOffsetOuter1" result="shadowBlurOuter1"></feGaussianBlur>
            <feComposite in="shadowBlurOuter1" in2="SourceAlpha" operator="out" result="shadowBlurOuter1"></feComposite>
            <feColorMatrix values="0 0 0 0 0.580392157   0 0 0 0 0.607843137   0 0 0 0 0.674509804  0 0 0 0.343941215 0" type="matrix" in="shadowBlurOuter1"></feColorMatrix>
        </filter>
        <linearGradient x1="100%" y1="0%" x2="0%" y2="100%" id="linearGradient-3">
            <stop stop-color="#FA5E1D" offset="0%"></stop>
            <stop stop-color="#F69A2A" offset="98.8307644%"></stop>
        </linearGradient>
        <linearGradient x1="100%" y1="25.5%" x2="0%" y2="74.5%" id="linearGradient-4">
            <stop stop-color="#FA5E1D" offset="0%"></stop>
            <stop stop-color="#F69A2A" offset="98.8307644%"></stop>
        </linearGradient>
        <linearGradient x1="100%" y1="29.7520661%" x2="0%" y2="70.2479339%" id="linearGradient-5">
            <stop stop-color="#FA5E1D" offset="0%"></stop>
            <stop stop-color="#F69A2A" offset="98.8307644%"></stop>
        </linearGradient>
        <linearGradient x1="100%" y1="45.9183673%" x2="0%" y2="54.0816327%" id="linearGradient-6">
            <stop stop-color="#FA5E1D" offset="0%"></stop>
            <stop stop-color="#F69A2A" offset="98.8307644%"></stop>
        </linearGradient>
        <linearGradient x1="57.6559546%" y1="0%" x2="42.3440454%" y2="100%" id="linearGradient-7">
            <stop stop-color="#FA5E1D" offset="0%"></stop>
            <stop stop-color="#F69A2A" offset="98.8307644%"></stop>
        </linearGradient>
        <linearGradient x1="58%" y1="0%" x2="42%" y2="100%" id="linearGradient-8">
            <stop stop-color="#FA5E1D" offset="0%"></stop>
            <stop stop-color="#F69A2A" offset="98.8307644%"></stop>
        </linearGradient>
        <linearGradient x1="66.3265306%" y1="0%" x2="33.6734694%" y2="100%" id="linearGradient-9">
            <stop stop-color="#FA5E1D" offset="0%"></stop>
            <stop stop-color="#F69A2A" offset="98.8307644%"></stop>
        </linearGradient>
    </defs>
    <g id="Page-1" stroke="none" stroke-width="1" fill="none" fill-rule="evenodd">
        <g id="icon4-copy-2" transform="translate(22.000000, 22.000000)">
            <g id="Rectangle">
                <use fill="black" fill-opacity="1" filter="url(#filter-2)" xlink:href="#path-1"></use>
                <use stroke="#FFFFFF" stroke-width="5" fill="#FFFFFF" fill-rule="evenodd" xlink:href="#path-1"></use>
            </g>
            <g id="gps" transform="translate(15.000000, 15.000000)">
                <path d="M43,14 C43,9.581722 39.4182779,6 35,6 C30.5817221,6 27,9.581722 27,14 C27,18.4182779 30.5817221,22 35,22 C39.4161894,21.9949616 42.9949616,18.4161894 43,14 Z M35,19.7142857 C31.8440872,19.7142857 29.2857143,17.1559128 29.2857143,14 C29.2857143,10.8440872 31.8440872,8.28571429 35,8.28571429 C38.1559128,8.28571429 40.7142857,10.8440872 40.7142857,14 C40.7105073,17.1543465 38.1543465,19.7105073 35,19.7142857 Z" id="Shape" fill="url(#linearGradient-3)"></path>
                <path d="M27.0922222,50.8800814 L21.5366667,50.0241069 C20.8988912,49.9258838 20.252944,50.1307193 19.7662332,50.5855268 C19.2795223,51.0403343 19,51.700342 19,52.3944979 L19,54.6056656 C19,55.92802 19.9949228,57 21.2222222,57 L26.7777778,57 C28.0050772,57 29,55.92802 29,54.6056656 L29,53.2492752 C28.995709,52.0597408 28.1846039,51.0524614 27.0922222,50.8800814 Z M21.2222222,54.6056656 L21.2222222,52.3944979 L26.7777778,53.2492752 L26.7777778,54.6056656 L21.2222222,54.6056656 Z" id="Shape" fill="url(#linearGradient-4)"></path>
                <path d="M49.2096667,50.0241069 L43.0985556,50.8800814 C41.8969357,51.0524614 41.0047201,52.0597408 41,53.2492752 L41,54.6056656 C41,55.92802 42.0944151,57 43.4444444,57 L49.5555556,57 C50.9055849,57 52,55.92802 52,54.6056656 L52,52.3944979 C52,51.700342 51.6925254,51.0403343 51.1571435,50.5855268 C50.6217616,50.1307193 49.9112197,49.9258838 49.2096667,50.0241069 Z M49.5555556,54.6056656 L43.4444444,54.6056656 L43.4444444,53.2492752 L49.5555556,52.3944979 L49.5555556,54.6056656 Z" id="Shape" fill="url(#linearGradient-5)"></path>
                <path d="M37.8333333,50 L33.1666667,50 C32.5223345,50 32,50.4477153 32,51 C32,51.5522847 32.5223345,52 33.1666667,52 L37.8333333,52 C38.4776655,52 39,51.5522847 39,51 C39,50.4477153 38.4776655,50 37.8333333,50 Z" id="Shape" fill="url(#linearGradient-6)"></path>
                <path d="M37.8333333,55 L33.1666667,55 C32.5223345,55 32,55.4477153 32,56 C32,56.5522847 32.5223345,57 33.1666667,57 L37.8333333,57 C38.4776655,57 39,56.5522847 39,56 C39,55.4477153 38.4776655,55 37.8333333,55 Z" id="Shape" fill="url(#linearGradient-6)"></path>
                <path d="M68.8333333,67.6667629 L53.452,67.6667629 C53.7378333,66.8629628 53.6666667,66.9562923 53.6666667,61.6190125 C55.0600761,61.1264024 55.9938734,59.81167 56,58.3338147 L56,51.3341035 C55.998658,49.8247282 55.409458,48.375222 54.3573333,47.292937 C55.6725418,46.4617992 56.2811976,44.8622837 55.8512092,43.3671096 C55.4212209,41.8719354 54.0558244,40.8400793 52.5,40.8345368 L49.7151667,40.8345368 L47.8333333,34.2466419 C47.0876721,31.694979 44.9704159,29.7794238 42.357,29.2920131 C47.3736667,20.6240374 47.0505,21.2131797 47.1065,21.0463533 C50.5408422,15.1316692 49.2028445,7.60186552 43.9410572,3.23230022 C38.67927,-1.13726509 31.0315074,-1.06953943 25.8479362,3.39252596 C20.6643649,7.85459135 19.4599397,15.4069098 22.9985,21.2598445 L27.65,29.2908464 C25.0331327,29.7767082 22.9125832,31.6941473 22.1666667,34.2489752 L20.2848333,40.8345368 L17.5,40.8345368 C15.9460932,40.8427268 14.583646,41.8744385 14.1545396,43.3678831 C13.7254332,44.8613278 14.332427,46.4588656 15.645,47.2906037 C14.5914599,48.3730956 14.0013601,49.8235929 14,51.3341035 L14,58.3338147 C14.0061266,59.81167 14.939924,61.1264024 16.3333333,61.6190125 C16.3333333,66.9854577 16.2633333,66.8687959 16.548,67.6667629 L1.16666667,67.6667629 C0.522334458,67.6667629 0,68.1890759 0,68.8333815 C0,69.477687 0.522334458,70 1.16666667,70 L68.8333333,70 C69.4776655,70 70,69.477687 70,68.8333815 C70,68.1890759 69.4776655,67.6667629 68.8333333,67.6667629 L68.8333333,67.6667629 Z M53.6666667,58.3338147 C53.6666667,58.9781203 53.1443321,59.5004332 52.5,59.5004332 L17.5,59.5004332 C16.8556679,59.5004332 16.3333333,58.9781203 16.3333333,58.3338147 L16.3333333,51.3341035 C16.3333333,49.4011867 17.9003368,47.834248 19.8333333,47.834248 L50.1666667,47.834248 C52.0996632,47.834248 53.6666667,49.4011867 53.6666667,51.3341035 L53.6666667,58.3338147 Z M24.5,61.8336703 L45.5,61.8336703 C45.5,66.8967947 45.4276667,66.8594629 45.7146667,67.6667629 L24.2853333,67.6667629 C24.5711667,66.865296 24.5,66.9492925 24.5,61.8336703 Z M52.5,43.1677738 C52.9716118,43.1716155 53.3945232,43.459016 53.5717042,43.8960784 C53.7488853,44.3331409 53.6454811,44.8338871 53.3096667,45.1650248 C52.8663333,45.620006 52.3903333,45.5010109 51.0463333,45.5010109 L50.3813333,43.1677738 L52.5,43.1677738 Z M25.0191667,20.059394 C22.4652983,15.840117 22.8407045,10.4707652 25.9568523,6.64788306 C29.073,2.82500087 34.2565741,1.37460983 38.9043296,3.0251114 C43.552085,4.67561296 46.6597676,9.07037831 46.6666667,14.0023106 C46.6406313,16.2217055 46.0219566,18.3938249 44.8746667,20.2938843 L35,37.3346812 C21.3103333,13.6803239 26.0668333,21.7906559 25.0191667,20.059394 Z M24.4078333,34.8929486 C24.9904454,32.8822785 26.8328768,31.4994416 28.9263333,31.501586 L32.9816667,38.5082994 C33.3989469,39.2284422 34.1682545,39.6717899 35.0005833,39.6717899 C35.8329121,39.6717899 36.6022197,39.2284422 37.0195,38.5082994 L41.0783333,31.501586 C43.1675309,31.5012428 45.0063619,32.8794774 45.5921667,34.8847823 L48.6255,45.5010109 L21.3791667,45.5010109 L24.4078333,34.8929486 Z M17.5,43.1677738 L19.6198333,43.1677738 L18.9536667,45.5010109 C17.4965,45.5010109 17.1185,45.6036733 16.6693333,45.1440256 C16.3457062,44.8083292 16.253062,44.312178 16.4337407,43.8823223 C16.6144196,43.4524667 17.0337145,43.1714782 17.5,43.1677738 L17.5,43.1677738 Z M19.8333333,67.6667629 C19.1890012,67.6667629 18.6666667,67.14445 18.6666667,66.5001444 L18.6666667,61.8336703 L22.1666667,61.8336703 L22.1666667,66.5001444 C22.1666667,67.14445 21.6443321,67.6667629 21,67.6667629 L19.8333333,67.6667629 Z M49,67.6667629 C48.3556678,67.6667629 47.8333333,67.14445 47.8333333,66.5001444 L47.8333333,61.8336703 L51.3333333,61.8336703 L51.3333333,66.5001444 C51.3333333,67.14445 50.8109988,67.6667629 50.1666667,67.6667629 L49,67.6667629 Z" id="Shape" fill="url(#linearGradient-3)"></path>
                <path d="M54.6583157,35.8247296 C54.0646409,36.1136934 53.829138,36.8066657 54.1323052,37.3725266 C54.4354726,37.9383875 55.1625067,38.1628571 55.7561815,37.8738933 C60.207418,35.6670843 63,31.2823072 63,26.5 C63,21.7176927 60.207418,17.3329157 55.7561815,15.1261067 C55.1625067,14.837143 54.4354726,15.0616124 54.1323052,15.6274733 C53.829138,16.1933342 54.0646409,16.8863065 54.6583157,17.1752704 C58.3026958,18.9882219 60.5877261,22.581714 60.5877261,26.5 C60.5877261,30.418286 58.3026958,34.011778 54.6583157,35.8247296 Z" id="Shape" fill="url(#linearGradient-7)"></path>
                <path d="M52.1251426,19.6373744 C51.9875816,19.9137122 51.9623081,20.2349793 52.0548824,20.5304975 C52.1474565,20.8260158 52.3502948,21.0715767 52.6187733,21.2131573 C54.5281137,22.2444264 55.7241468,24.2806928 55.7241468,26.5001077 C55.7241468,28.7195227 54.5281137,30.7557891 52.6187733,31.7870582 C52.257119,31.9779921 52.0218997,32.3530145 52.0017205,32.7708578 C51.9815412,33.1887011 52.1794677,33.5858851 52.5209427,33.8127944 C52.8624178,34.0397038 53.2955632,34.0618655 53.6572175,33.8709315 C56.3261854,32.4389641 58,29.5980683 58,26.5001077 C58,23.4021471 56.3261854,20.5612513 53.6572175,19.129284 C53.3886305,18.9873227 53.0762265,18.9611065 52.7888459,19.0564121 C52.5014651,19.1517178 52.2626923,19.3607239 52.1251426,19.6373744 L52.1251426,19.6373744 Z" id="Shape" fill="url(#linearGradient-8)"></path>
                <path d="M50.6998995,27.6411456 C50.1723536,27.9055503 49.8993761,28.484327 50.038561,29.0433394 C50.1777459,29.6023518 50.6931468,29.9972278 51.2872154,30 C52.9274826,29.5948318 54.0553253,28.1392853 53.997904,26.501699 C54.004259,25.082814 53.1844631,23.7814233 51.8784037,23.1370832 C51.2435738,22.8231236 50.4659924,23.0667303 50.1416268,23.6811939 C49.8172611,24.2956575 50.0689421,25.0482929 50.7037719,25.3622524 C51.1409416,25.5852451 51.4142677,26.024526 51.413455,26.5028319 C51.4126422,26.9811378 51.1378247,27.419546 50.6998995,27.6411456 L50.6998995,27.6411456 Z" id="Shape" fill="url(#linearGradient-9)"></path>
                <path d="M14.2438185,15.1261081 C9.792582,17.3329403 7,21.7177636 7,26.5001212 C7,31.2824789 9.792582,35.6673022 14.2438185,37.8741344 C14.6278587,38.0610632 15.0873526,38.0385062 15.4492132,37.8149605 C15.8110738,37.5914148 16.0203258,37.2008424 15.9981461,36.7903679 C15.9759664,36.3798934 15.7257246,36.0118778 15.3416843,35.8249491 C11.6973042,34.0119785 9.41227395,30.4184485 9.41227395,26.5001212 C9.41227395,22.5817939 11.6973042,18.988264 15.3416843,17.1752933 C15.9353591,16.8863265 16.170862,16.1933469 15.8676947,15.62748 C15.5645274,15.0616131 14.8374933,14.8371412 14.2438185,15.1261081 Z" id="Shape" fill="url(#linearGradient-7)"></path>
                <path d="M16.343438,33.8709486 C16.9025914,34.1657936 17.5881191,33.9383061 17.8746066,33.3628411 C18.1610942,32.7873761 17.9400549,32.0818503 17.3809014,31.7870053 C15.4712728,30.7557016 14.2750592,28.7193668 14.2750592,26.4998772 C14.2750592,24.2803877 15.4712728,22.2440529 17.3809014,21.2127491 C17.7426103,21.0220179 17.9779733,20.6471762 17.9983316,20.2294234 C18.0186899,19.8116706 17.8209505,19.4144732 17.4795999,19.1874517 C17.1382493,18.9604302 16.7051469,18.9380746 16.343438,19.1288058 C13.6740672,20.5608213 12,23.4018125 12,26.4998772 C12,29.5979419 13.6740672,32.4389332 16.343438,33.8709486 L16.343438,33.8709486 Z" id="Shape" fill="url(#linearGradient-8)"></path>
                <path d="M19.2954179,25.3611063 C19.9309785,25.0472991 20.1829493,24.2950288 19.8582102,23.6808634 C19.5334712,23.0666979 18.7549947,22.8232095 18.119434,23.1370166 C16.8176809,23.7867405 16,25.0841846 16,26.5 C16,27.9158154 16.8176809,29.2132595 18.119434,29.8629834 C18.7549947,30.1767905 19.5334712,29.9333021 19.8582102,29.3191366 C20.1829493,28.7049712 19.9309785,27.9527009 19.2954179,27.6388937 C18.8573679,27.4167046 18.5829816,26.9780732 18.5829816,26.5 C18.5829816,26.0219268 18.8573679,25.5832954 19.2954179,25.3611063 Z" id="Shape" fill="url(#linearGradient-9)"></path>
            </g>
        </g>
    </g>
</svg>